<?xml version="1.0" encoding="UTF-8"?>
<!DOCTYPE svg PUBLIC "-//W3C//DTD SVG 1.1//EN" "http://www.w3.org/Graphics/SVG/1.1/DTD/svg11.dtd">
<svg xmlns="http://www.w3.org/2000/svg" version="1.1" width="499px" height="374px" style="shape-rendering:geometricPrecision; text-rendering:geometricPrecision; image-rendering:optimizeQuality; fill-rule:evenodd; clip-rule:evenodd" xmlns:xlink="http://www.w3.org/1999/xlink">
<g><path style="opacity:1" fill="#fefefe" d="M -0.5,-0.5 C 165.833,-0.5 332.167,-0.5 498.5,-0.5C 498.5,124.167 498.5,248.833 498.5,373.5C 332.167,373.5 165.833,373.5 -0.5,373.5C -0.5,248.833 -0.5,124.167 -0.5,-0.5 Z"/></g>
<g><path style="opacity:1" fill="#ddc0c4" d="M 203.5,96.5 C 203.5,97.5 203.5,98.5 203.5,99.5C 201.708,99.366 200.042,99.6993 198.5,100.5C 198.5,99.5 198.5,98.5 198.5,97.5C 200.044,97.2969 201.378,96.6302 202.5,95.5C 203.107,95.6236 203.44,95.9569 203.5,96.5 Z"/></g>
<g><path style="opacity:1" fill="#98616e" d="M 203.5,96.5 C 204.479,99.6248 204.813,102.958 204.5,106.5C 200.891,107.974 197.557,109.974 194.5,112.5C 192.787,111.122 191.453,109.455 190.5,107.5C 193.186,105.144 195.853,102.811 198.5,100.5C 200.042,99.6993 201.708,99.366 203.5,99.5C 203.5,98.5 203.5,97.5 203.5,96.5 Z"/></g>
<g><path style="opacity:1" fill="#9e6a76" d="M 206.5,97.5 C 216.742,99.068 223.742,104.735 227.5,114.5C 229.735,114.205 231.735,114.539 233.5,115.5C 230.455,115.508 227.455,115.841 224.5,116.5C 225.412,115.262 225.579,113.928 225,112.5C 222.984,110.316 220.817,108.316 218.5,106.5C 214.906,105.574 211.24,105.241 207.5,105.5C 206.527,103.052 206.194,100.385 206.5,97.5 Z"/></g>
<g><path style="opacity:1" fill="#fbf7f7" d="M 207.5,105.5 C 211.24,105.241 214.906,105.574 218.5,106.5C 220.817,108.316 222.984,110.316 225,112.5C 225.579,113.928 225.412,115.262 224.5,116.5C 220.154,116.666 215.821,116.499 211.5,116C 208.89,113.005 207.557,109.505 207.5,105.5 Z"/></g>
<g><path style="opacity:1" fill="#827f81" d="M 268.5,114.5 C 261.883,112.768 255.55,113.434 249.5,116.5C 250.36,114.386 252.027,113.22 254.5,113C 258.833,112.333 263.167,112.333 267.5,113C 268.056,113.383 268.389,113.883 268.5,114.5 Z"/></g>
<g><path style="opacity:1" fill="#2e232f" d="M 268.5,114.5 C 272.669,115.673 276.002,118.006 278.5,121.5C 276.508,121.672 274.842,121.005 273.5,119.5C 273.861,123.179 273.361,126.846 272,130.5C 268.509,133.199 264.676,134.866 260.5,135.5C 253.625,133.781 246.959,131.447 240.5,128.5C 240.833,127.833 241.167,127.167 241.5,126.5C 242.345,125.329 243.011,123.995 243.5,122.5C 244.5,122.167 245.167,121.5 245.5,120.5C 246.402,118.659 247.736,117.326 249.5,116.5C 255.55,113.434 261.883,112.768 268.5,114.5 Z"/></g>
<g><path style="opacity:1" fill="#dd4b5c" d="M 206.5,97.5 C 206.194,100.385 206.527,103.052 207.5,105.5C 207.557,109.505 208.89,113.005 211.5,116C 215.821,116.499 220.154,116.666 224.5,116.5C 227.455,115.841 230.455,115.508 233.5,115.5C 237.207,117.681 241.207,119.348 245.5,120.5C 245.167,121.5 244.5,122.167 243.5,122.5C 241.113,120.897 238.446,119.897 235.5,119.5C 233.901,119.232 232.568,119.566 231.5,120.5C 229.597,120.796 227.93,121.463 226.5,122.5C 221.473,124.873 216.14,126.039 210.5,126C 208.513,124.681 207.346,122.848 207,120.5C 206.32,115.664 205.486,110.997 204.5,106.5C 204.813,102.958 204.479,99.6248 203.5,96.5C 203.44,95.9569 203.107,95.6236 202.5,95.5C 201.378,96.6302 200.044,97.2969 198.5,97.5C 197.833,95.1806 197.666,92.8473 198,90.5C 200.267,89.0652 202.267,89.3985 204,91.5C 204.24,93.8516 205.073,95.8516 206.5,97.5 Z"/></g>
<g><path style="opacity:1" fill="#ae8d94" d="M 231.5,120.5 C 232.989,122.645 233.989,124.978 234.5,127.5C 234.5,127.833 234.5,128.167 234.5,128.5C 232.621,127.103 230.954,125.437 229.5,123.5C 228.675,122.614 227.675,122.281 226.5,122.5C 227.93,121.463 229.597,120.796 231.5,120.5 Z"/></g>
<g><path style="opacity:1" fill="#221e1e" d="M 235.5,119.5 C 235.584,122.682 236.917,125.015 239.5,126.5C 238.104,128.373 236.437,128.706 234.5,127.5C 233.989,124.978 232.989,122.645 231.5,120.5C 232.568,119.566 233.901,119.232 235.5,119.5 Z"/></g>
<g><path style="opacity:1" fill="#ece6e7" d="M 235.5,119.5 C 238.446,119.897 241.113,120.897 243.5,122.5C 243.011,123.995 242.345,125.329 241.5,126.5C 240.833,126.5 240.167,126.5 239.5,126.5C 236.917,125.015 235.584,122.682 235.5,119.5 Z"/></g>
<g><path style="opacity:1" fill="#20121a" d="M 278.5,121.5 C 279.476,122.815 280.476,124.148 281.5,125.5C 282.421,123.244 284.088,122.244 286.5,122.5C 285.885,126.008 284.885,129.341 283.5,132.5C 283.5,134.5 283.5,136.5 283.5,138.5C 279.833,138.5 276.167,138.5 272.5,138.5C 267.97,138.964 263.97,137.964 260.5,135.5C 264.676,134.866 268.509,133.199 272,130.5C 273.361,126.846 273.861,123.179 273.5,119.5C 274.842,121.005 276.508,121.672 278.5,121.5 Z"/></g>
<g><path style="opacity:1" fill="#7f525c" d="M 239.5,126.5 C 240.167,126.5 240.833,126.5 241.5,126.5C 241.167,127.167 240.833,127.833 240.5,128.5C 240.167,129.167 239.833,129.833 239.5,130.5C 237.833,130.5 236.167,130.5 234.5,130.5C 234.5,129.833 234.5,129.167 234.5,128.5C 234.5,128.167 234.5,127.833 234.5,127.5C 236.437,128.706 238.104,128.373 239.5,126.5 Z"/></g>
<g><path style="opacity:1" fill="#9b9c9e" d="M 234.5,130.5 C 236.167,130.5 237.833,130.5 239.5,130.5C 239.5,130.833 239.5,131.167 239.5,131.5C 239.5,132.5 239.5,133.5 239.5,134.5C 237.784,134.371 236.117,134.038 234.5,133.5C 234.167,132.833 233.833,132.167 233.5,131.5C 234.167,131.5 234.5,131.167 234.5,130.5 Z"/></g>
<g><path style="opacity:1" fill="#2d212d" d="M 233.5,131.5 C 233.833,132.167 234.167,132.833 234.5,133.5C 233.479,140.19 234.979,146.19 239,151.5C 240.254,155.111 239.088,156.611 235.5,156C 232.469,153.936 230.136,151.269 228.5,148C 226.866,147.506 225.199,147.34 223.5,147.5C 223.517,144.08 223.683,140.746 224,137.5C 223.333,138.167 222.667,138.833 222,139.5C 221.503,136.854 221.336,134.187 221.5,131.5C 225.516,130.257 229.516,130.257 233.5,131.5 Z"/></g>
<g><path style="opacity:1" fill="#2c222c" d="M 241.5,132.5 C 248.298,136.332 255.631,138.666 263.5,139.5C 267.545,141.177 271.878,141.844 276.5,141.5C 276.5,141.833 276.5,142.167 276.5,142.5C 269.8,142.83 263.134,142.497 256.5,141.5C 253.988,140.205 251.321,139.539 248.5,139.5C 247.921,147.004 250.588,153.004 256.5,157.5C 258.32,159.448 260.654,160.448 263.5,160.5C 264.609,161.29 265.942,161.79 267.5,162C 253.678,164.89 244.845,159.39 241,145.5C 240.232,141.08 240.398,136.747 241.5,132.5 Z"/></g>
<g><path style="opacity:1" fill="#f6c9a2" d="M 220.5,132.5 C 220.312,135.206 219.312,137.539 217.5,139.5C 215.658,140.075 213.658,139.909 211.5,139C 209.547,134.108 211.214,131.274 216.5,130.5C 218.114,130.803 219.448,131.47 220.5,132.5 Z"/></g>
<g><path style="opacity:1" fill="#c94153" d="M 240.5,128.5 C 246.959,131.447 253.625,133.781 260.5,135.5C 263.97,137.964 267.97,138.964 272.5,138.5C 273.952,139.302 275.618,139.802 277.5,140C 272.826,140.333 268.16,140.167 263.5,139.5C 255.631,138.666 248.298,136.332 241.5,132.5C 241.158,131.662 240.492,131.328 239.5,131.5C 239.5,131.167 239.5,130.833 239.5,130.5C 239.833,129.833 240.167,129.167 240.5,128.5 Z"/></g>
<g><path style="opacity:1" fill="#69534b" d="M 221.5,131.5 C 220.833,131.5 220.5,131.833 220.5,132.5C 219.448,131.47 218.114,130.803 216.5,130.5C 211.214,131.274 209.547,134.108 211.5,139C 213.658,139.909 215.658,140.075 217.5,139.5C 217.218,140.778 216.551,141.778 215.5,142.5C 209.806,141.028 207.973,137.362 210,131.5C 212.289,130.014 214.789,129.014 217.5,128.5C 219.417,128.754 220.751,129.754 221.5,131.5 Z"/></g>
<g><path style="opacity:1" fill="#762232" d="M 272.5,138.5 C 276.167,138.5 279.833,138.5 283.5,138.5C 283.167,139.5 282.5,140.167 281.5,140.5C 279.784,140.629 278.117,140.962 276.5,141.5C 271.878,141.844 267.545,141.177 263.5,139.5C 268.16,140.167 272.826,140.333 277.5,140C 275.618,139.802 273.952,139.302 272.5,138.5 Z"/></g>
<g><path style="opacity:1" fill="#f1c5a1" d="M 276.5,142.5 C 277.822,142.67 278.989,142.337 280,141.5C 279.917,144.119 279.75,146.786 279.5,149.5C 278.514,151.426 277.514,153.426 276.5,155.5C 274.491,157.065 272.157,158.065 269.5,158.5C 265.102,158.706 260.768,158.373 256.5,157.5C 250.588,153.004 247.921,147.004 248.5,139.5C 251.321,139.539 253.988,140.205 256.5,141.5C 263.134,142.497 269.8,142.83 276.5,142.5 Z"/></g>
<g><path style="opacity:1" fill="#a3816b" d="M 281.5,140.5 C 281.58,143.781 280.913,146.781 279.5,149.5C 279.75,146.786 279.917,144.119 280,141.5C 278.989,142.337 277.822,142.67 276.5,142.5C 276.5,142.167 276.5,141.833 276.5,141.5C 278.117,140.962 279.784,140.629 281.5,140.5 Z"/></g>
<g><path style="opacity:1" fill="#948b84" d="M 306.5,153.5 C 305.732,152.737 305.232,151.737 305,150.5C 304.536,151.094 304.369,151.761 304.5,152.5C 303.9,151.1 302.9,150.1 301.5,149.5C 301.5,149.167 301.5,148.833 301.5,148.5C 301.517,146.972 302.184,146.472 303.5,147C 305.457,148.746 306.457,150.912 306.5,153.5 Z"/></g>
<g><path style="opacity:1" fill="#7d6053" d="M 261.5,154.5 C 261.371,152.784 261.038,151.117 260.5,149.5C 260.489,147.983 259.823,146.816 258.5,146C 259.167,145.333 259.833,145.333 260.5,146C 261.708,148.25 263.041,150.417 264.5,152.5C 263.995,153.919 262.995,154.585 261.5,154.5 Z"/></g>
<g><path style="opacity:1" fill="#787172" d="M 259.5,149.5 C 259.5,151.167 259.5,152.833 259.5,154.5C 258.698,153.048 258.198,151.382 258,149.5C 257.346,150.696 256.846,150.696 256.5,149.5C 257.614,148.224 258.614,148.224 259.5,149.5 Z"/></g>
<g><path style="opacity:1" fill="#896e60" d="M 274.5,144.5 C 275.239,144.369 275.906,144.536 276.5,145C 273.584,147.071 273.918,148.405 277.5,149C 275.893,150.049 275.227,151.549 275.5,153.5C 273.335,153.884 271.668,153.217 270.5,151.5C 271.592,148.976 272.926,146.643 274.5,144.5 Z"/></g>
<g><path style="opacity:1" fill="#20191f" d="M 259.5,149.5 C 259.833,149.5 260.167,149.5 260.5,149.5C 261.038,151.117 261.371,152.784 261.5,154.5C 260.833,154.5 260.167,154.5 259.5,154.5C 259.5,152.833 259.5,151.167 259.5,149.5 Z"/></g>
<g><path style="opacity:1" fill="#3b3334" d="M 306.5,153.5 C 307.306,154.728 308.306,155.728 309.5,156.5C 306.633,156.631 304.967,155.297 304.5,152.5C 304.369,151.761 304.536,151.094 305,150.5C 305.232,151.737 305.732,152.737 306.5,153.5 Z"/></g>
<g><path style="opacity:1" fill="#30232e" d="M 283.5,132.5 C 284.645,136.311 284.812,140.311 284,144.5C 282.743,147.468 281.576,150.468 280.5,153.5C 281.194,156.51 282.861,157.177 285.5,155.5C 287.934,155.648 290.601,155.814 293.5,156C 291.866,156.494 290.199,156.66 288.5,156.5C 288.5,158.167 288.5,159.833 288.5,161.5C 287.325,161.281 286.325,161.614 285.5,162.5C 289.55,171.13 286.883,174.297 277.5,172C 276.359,169.692 274.692,167.859 272.5,166.5C 272.474,169.148 272.141,171.815 271.5,174.5C 269.167,174.5 266.833,174.5 264.5,174.5C 262.833,174.5 261.167,174.5 259.5,174.5C 257.131,174.851 254.797,175.018 252.5,175C 256.635,173.274 259.968,170.608 262.5,167C 262.167,166.5 261.833,166 261.5,165.5C 260.818,166.243 260.151,166.909 259.5,167.5C 259.5,166.5 259.5,165.5 259.5,164.5C 262.898,164.82 266.232,164.487 269.5,163.5C 271.586,161.216 274.086,159.216 277,157.5C 277.692,156.563 277.525,155.897 276.5,155.5C 277.514,153.426 278.514,151.426 279.5,149.5C 280.913,146.781 281.58,143.781 281.5,140.5C 282.5,140.167 283.167,139.5 283.5,138.5C 283.5,136.5 283.5,134.5 283.5,132.5 Z"/></g>
<g><path style="opacity:1" fill="#f2c39d" d="M 301.5,149.5 C 302.9,150.1 303.9,151.1 304.5,152.5C 304.967,155.297 306.633,156.631 309.5,156.5C 309.5,158.833 309.5,161.167 309.5,163.5C 306.14,163.616 302.807,163.949 299.5,164.5C 298.939,163.092 298.605,161.592 298.5,160C 299.662,156.484 300.662,152.984 301.5,149.5 Z"/></g>
<g><path style="opacity:1" fill="#1f131b" d="M 221.5,131.5 C 221.336,134.187 221.503,136.854 222,139.5C 222.667,138.833 223.333,138.167 224,137.5C 223.683,140.746 223.517,144.08 223.5,147.5C 225.199,147.34 226.866,147.506 228.5,148C 230.136,151.269 232.469,153.936 235.5,156C 239.088,156.611 240.254,155.111 239,151.5C 234.979,146.19 233.479,140.19 234.5,133.5C 236.117,134.038 237.784,134.371 239.5,134.5C 239.5,133.5 239.5,132.5 239.5,131.5C 240.492,131.328 241.158,131.662 241.5,132.5C 240.398,136.747 240.232,141.08 241,145.5C 244.845,159.39 253.678,164.89 267.5,162C 265.942,161.79 264.609,161.29 263.5,160.5C 265.898,160.741 267.898,160.074 269.5,158.5C 272.157,158.065 274.491,157.065 276.5,155.5C 277.525,155.897 277.692,156.563 277,157.5C 274.086,159.216 271.586,161.216 269.5,163.5C 266.232,164.487 262.898,164.82 259.5,164.5C 259.5,165.5 259.5,166.5 259.5,167.5C 257.571,169.148 255.571,170.815 253.5,172.5C 250.231,173.469 247.231,174.802 244.5,176.5C 242.958,177.301 241.292,177.634 239.5,177.5C 239.5,177.167 239.5,176.833 239.5,176.5C 241.182,167.875 238.348,161.208 231,156.5C 227.406,155.815 223.906,154.815 220.5,153.5C 218.743,149.674 217.077,146.007 215.5,142.5C 216.551,141.778 217.218,140.778 217.5,139.5C 219.312,137.539 220.312,135.206 220.5,132.5C 220.5,131.833 220.833,131.5 221.5,131.5 Z"/></g>
<g><path style="opacity:1" fill="#a3816d" d="M 256.5,157.5 C 260.768,158.373 265.102,158.706 269.5,158.5C 267.898,160.074 265.898,160.741 263.5,160.5C 260.654,160.448 258.32,159.448 256.5,157.5 Z"/></g>
<g><path style="opacity:1" fill="#3f3232" d="M 301.5,148.5 C 301.5,148.833 301.5,149.167 301.5,149.5C 300.662,152.984 299.662,156.484 298.5,160C 298.605,161.592 298.939,163.092 299.5,164.5C 297.972,165.802 296.972,167.469 296.5,169.5C 296.173,166.518 296.173,163.685 296.5,161C 289.833,160 289.833,159 296.5,158C 295.944,157.617 295.611,157.117 295.5,156.5C 297.017,156.489 298.184,155.823 299,154.5C 299.002,151.949 299.836,149.949 301.5,148.5 Z"/></g>
<g><path style="opacity:1" fill="#5b4c48" d="M 309.5,156.5 C 312.034,159.142 312.034,161.976 309.5,165C 305.973,165.808 302.64,165.641 299.5,164.5C 302.807,163.949 306.14,163.616 309.5,163.5C 309.5,161.167 309.5,158.833 309.5,156.5 Z"/></g>
<g><path style="opacity:1" fill="#dc4d5c" d="M 237.5,176.5 C 235.858,174.919 233.858,174.253 231.5,174.5C 231.5,172.833 231.5,171.167 231.5,169.5C 234.634,170.712 236.634,173.046 237.5,176.5 Z"/></g>
<g><path style="opacity:1" fill="#ac3a4a" d="M 259.5,174.5 C 254.794,176.971 249.794,177.638 244.5,176.5C 247.231,174.802 250.231,173.469 253.5,172.5C 255.571,170.815 257.571,169.148 259.5,167.5C 260.151,166.909 260.818,166.243 261.5,165.5C 261.833,166 262.167,166.5 262.5,167C 259.968,170.608 256.635,173.274 252.5,175C 254.797,175.018 257.131,174.851 259.5,174.5 Z"/></g>
<g><path style="opacity:1" fill="#a0616f" d="M 231.5,174.5 C 233.858,174.253 235.858,174.919 237.5,176.5C 238.167,176.5 238.833,176.5 239.5,176.5C 239.5,176.833 239.5,177.167 239.5,177.5C 239.5,178.167 239.5,178.833 239.5,179.5C 238.167,179.5 236.833,179.5 235.5,179.5C 234.514,177.484 232.847,176.151 230.5,175.5C 230.624,174.893 230.957,174.56 231.5,174.5 Z"/></g>
<g><path style="opacity:1" fill="#965a67" d="M 264.5,174.5 C 266.833,174.5 269.167,174.5 271.5,174.5C 271.5,174.833 271.5,175.167 271.5,175.5C 270.596,176.209 270.263,177.209 270.5,178.5C 270.5,178.833 270.5,179.167 270.5,179.5C 269.833,179.5 269.5,179.833 269.5,180.5C 267.833,180.5 266.167,180.5 264.5,180.5C 264.5,180.167 264.5,179.833 264.5,179.5C 264.5,177.833 264.5,176.167 264.5,174.5 Z"/></g>
<g><path style="opacity:1" fill="#e3475a" d="M 271.5,175.5 C 275.608,177.33 275.275,178.33 270.5,178.5C 270.263,177.209 270.596,176.209 271.5,175.5 Z"/></g>
<g><path style="opacity:1" fill="#df485a" d="M 259.5,174.5 C 261.167,174.5 262.833,174.5 264.5,174.5C 264.5,176.167 264.5,177.833 264.5,179.5C 256.167,179.5 247.833,179.5 239.5,179.5C 239.5,178.833 239.5,178.167 239.5,177.5C 241.292,177.634 242.958,177.301 244.5,176.5C 249.794,177.638 254.794,176.971 259.5,174.5 Z"/></g>
<g><path style="opacity:1" fill="#76222f" d="M 271.5,175.5 C 274.604,174.971 276.937,175.971 278.5,178.5C 275.914,179.48 273.247,179.813 270.5,179.5C 270.5,179.167 270.5,178.833 270.5,178.5C 275.275,178.33 275.608,177.33 271.5,175.5 Z"/></g>
<g><path style="opacity:1" fill="#989597" d="M 285.5,177.5 C 284.41,178.857 283.076,179.857 281.5,180.5C 279.668,179.86 279.335,178.86 280.5,177.5C 282.128,178.535 283.795,178.535 285.5,177.5 Z"/></g>
<g><path style="opacity:1" fill="#561924" d="M 235.5,179.5 C 236.833,179.5 238.167,179.5 239.5,179.5C 247.833,179.5 256.167,179.5 264.5,179.5C 264.5,179.833 264.5,180.167 264.5,180.5C 254.473,180.301 244.473,180.634 234.5,181.5C 234.833,180.833 235.167,180.167 235.5,179.5 Z"/></g>
<g><path style="opacity:1" fill="#2b1f2a" d="M 264.5,180.5 C 266.167,180.5 267.833,180.5 269.5,180.5C 280.269,182.037 283.102,187.704 278,197.5C 277.107,198.711 276.274,198.711 275.5,197.5C 276.59,196.391 276.59,195.391 275.5,194.5C 272.76,198.948 269.26,199.614 265,196.5C 263.878,194.58 263.044,192.58 262.5,190.5C 263.675,190.719 264.675,190.386 265.5,189.5C 254.948,187.961 245.782,190.961 238,198.5C 237.294,200.955 238.127,202.622 240.5,203.5C 239.833,204.833 238.833,205.833 237.5,206.5C 236.696,203.508 235.196,200.841 233,198.5C 232.535,199.931 231.701,201.097 230.5,202C 227.833,202.667 225.167,202.667 222.5,202C 220.771,200.211 220.104,198.044 220.5,195.5C 222.599,196.231 224.599,196.231 226.5,195.5C 225.273,194.41 224.44,193.076 224,191.5C 222.667,194.167 221.333,194.167 220,191.5C 219.667,192.167 219.333,192.833 219,193.5C 218.722,192.584 218.222,191.918 217.5,191.5C 221.417,185.369 227.084,182.035 234.5,181.5C 244.473,180.634 254.473,180.301 264.5,180.5 Z"/></g>
<g><path style="opacity:1" fill="#1f121a" d="M 295.5,156.5 C 295.611,157.117 295.944,157.617 296.5,158C 289.833,159 289.833,160 296.5,161C 296.173,163.685 296.173,166.518 296.5,169.5C 296.489,171.017 295.823,172.184 294.5,173C 291.589,174.761 288.589,176.261 285.5,177.5C 283.795,178.535 282.128,178.535 280.5,177.5C 279.335,178.86 279.668,179.86 281.5,180.5C 284.36,184.671 285.193,189.337 284,194.5C 282.254,197.925 280.421,201.258 278.5,204.5C 276.517,204.157 275.183,204.824 274.5,206.5C 272.5,206.5 270.5,206.5 268.5,206.5C 265.856,202.016 262.189,198.683 257.5,196.5C 251.563,198.389 245.897,200.722 240.5,203.5C 238.127,202.622 237.294,200.955 238,198.5C 245.782,190.961 254.948,187.961 265.5,189.5C 264.675,190.386 263.675,190.719 262.5,190.5C 263.044,192.58 263.878,194.58 265,196.5C 269.26,199.614 272.76,198.948 275.5,194.5C 276.59,195.391 276.59,196.391 275.5,197.5C 276.274,198.711 277.107,198.711 278,197.5C 283.102,187.704 280.269,182.037 269.5,180.5C 269.5,179.833 269.833,179.5 270.5,179.5C 273.247,179.813 275.914,179.48 278.5,178.5C 276.937,175.971 274.604,174.971 271.5,175.5C 271.5,175.167 271.5,174.833 271.5,174.5C 272.141,171.815 272.474,169.148 272.5,166.5C 274.692,167.859 276.359,169.692 277.5,172C 286.883,174.297 289.55,171.13 285.5,162.5C 286.325,161.614 287.325,161.281 288.5,161.5C 288.5,159.833 288.5,158.167 288.5,156.5C 290.199,156.66 291.866,156.494 293.5,156C 290.601,155.814 287.934,155.648 285.5,155.5C 289.307,151.41 292.64,151.743 295.5,156.5 Z"/></g>
<g><path style="opacity:1" fill="#21131b" d="M 217.5,191.5 C 218.222,191.918 218.722,192.584 219,193.5C 219.333,192.833 219.667,192.167 220,191.5C 221.333,194.167 222.667,194.167 224,191.5C 224.44,193.076 225.273,194.41 226.5,195.5C 224.599,196.231 222.599,196.231 220.5,195.5C 220.104,198.044 220.771,200.211 222.5,202C 225.167,202.667 227.833,202.667 230.5,202C 231.701,201.097 232.535,199.931 233,198.5C 235.196,200.841 236.696,203.508 237.5,206.5C 232.923,210.144 227.59,211.811 221.5,211.5C 218.933,210.283 216.6,208.616 214.5,206.5C 214.334,202.486 214.501,198.486 215,194.5C 216.417,193.922 217.25,192.922 217.5,191.5 Z"/></g>
<g><path style="opacity:1" fill="#634d54" d="M 278.5,204.5 C 278.389,205.117 278.056,205.617 277.5,206C 280.365,206.183 283.031,206.683 285.5,207.5C 283.508,207.328 281.842,207.995 280.5,209.5C 278.844,207.265 276.844,206.932 274.5,208.5C 274.5,207.833 274.5,207.167 274.5,206.5C 275.183,204.824 276.517,204.157 278.5,204.5 Z"/></g>
<g><path style="opacity:1" fill="#bf3c4d" d="M 268.5,206.5 C 270.5,206.5 272.5,206.5 274.5,206.5C 274.5,207.167 274.5,207.833 274.5,208.5C 272.5,208.5 270.5,208.5 268.5,208.5C 268.5,207.833 268.5,207.167 268.5,206.5 Z"/></g>
<g><path style="opacity:1" fill="#db495a" d="M 214.5,206.5 C 216.6,208.616 218.933,210.283 221.5,211.5C 217.993,213.754 214.327,215.754 210.5,217.5C 209.292,216.766 207.959,216.433 206.5,216.5C 208.219,212.388 210.886,209.055 214.5,206.5 Z"/></g>
<g><path style="opacity:1" fill="#191317" d="M 285.5,207.5 C 287.017,209.936 286.684,212.102 284.5,214C 281.112,214.659 277.779,214.492 274.5,213.5C 272.412,212.799 270.412,211.799 268.5,210.5C 268.5,209.833 268.5,209.167 268.5,208.5C 270.5,208.5 272.5,208.5 274.5,208.5C 276.844,206.932 278.844,207.265 280.5,209.5C 281.842,207.995 283.508,207.328 285.5,207.5 Z"/></g>
<g><path style="opacity:1" fill="#878486" d="M 268.5,210.5 C 270.412,211.799 272.412,212.799 274.5,213.5C 272.801,213.66 271.134,213.494 269.5,213C 268.748,212.329 268.414,211.496 268.5,210.5 Z"/></g>
<g><path style="opacity:1" fill="#241d22" d="M 206.5,216.5 C 207.959,216.433 209.292,216.766 210.5,217.5C 210.346,225.268 206.346,229.601 198.5,230.5C 197.167,228.5 197.167,226.5 198.5,224.5C 200.21,220.79 202.877,218.123 206.5,216.5 Z"/></g>
<g><path style="opacity:1" fill="#b8ac84" d="M 313.5,231.5 C 312.586,234.728 312.253,238.061 312.5,241.5C 311.779,243.382 310.779,243.715 309.5,242.5C 309.5,239.167 309.5,235.833 309.5,232.5C 309.174,228.116 309.508,223.783 310.5,219.5C 310.882,223.916 311.882,227.916 313.5,231.5 Z"/></g>
<g><path style="opacity:1" fill="#d99959" d="M 187.5,231.5 C 187.5,235.167 187.5,238.833 187.5,242.5C 186.2,243.108 184.867,243.775 183.5,244.5C 176.935,242.867 170.268,242.2 163.5,242.5C 163.071,238.743 163.737,235.243 165.5,232C 172.859,232.437 180.192,232.271 187.5,231.5 Z"/></g>
<g><path style="opacity:1" fill="#eac9ae" d="M 302.5,232.5 C 291.5,233.167 280.5,233.833 269.5,234.5C 259.833,234.5 250.167,234.5 240.5,234.5C 260.979,232.925 281.646,232.258 302.5,232.5 Z"/></g>
<g><path style="opacity:1" fill="#d89657" d="M 332.5,231.5 C 331.722,235.751 329.056,237.917 324.5,238C 321.226,241.216 317.226,242.383 312.5,241.5C 312.253,238.061 312.586,234.728 313.5,231.5C 319.922,230.999 326.256,230.999 332.5,231.5 Z"/></g>
<g><path style="opacity:1" fill="#d99656" d="M 212.5,234.5 C 221.833,234.5 231.167,234.5 240.5,234.5C 250.167,234.5 259.833,234.5 269.5,234.5C 281.198,234.208 292.865,234.541 304.5,235.5C 305.672,235.081 306.672,234.415 307.5,233.5C 307.833,234.667 308.167,235.833 308.5,237C 308.392,238.681 307.725,239.848 306.5,240.5C 304.422,239.899 302.255,239.566 300,239.5C 284.107,240.104 268.274,241.104 252.5,242.5C 236.677,241.243 220.844,240.243 205,239.5C 203.615,239.514 202.449,239.848 201.5,240.5C 197.931,238.881 194.264,237.548 190.5,236.5C 190.5,235.5 190.5,234.5 190.5,233.5C 197.849,233.549 205.183,233.882 212.5,234.5 Z"/></g>
<g><path style="opacity:1" fill="#b1a984" d="M 189.5,232.5 C 189.824,236.555 189.491,240.555 188.5,244.5C 187.702,244.043 187.369,243.376 187.5,242.5C 187.5,238.833 187.5,235.167 187.5,231.5C 187.177,227.774 187.511,224.107 188.5,220.5C 189.491,224.445 189.824,228.445 189.5,232.5 Z"/></g>
<g><path style="opacity:1" fill="#dea05c" d="M 308.5,243.5 C 309.048,246.084 310.715,247.084 313.5,246.5C 313.343,245.127 313.51,243.793 314,242.5C 320.089,243.467 326.255,244.134 332.5,244.5C 332.5,246.167 332.5,247.833 332.5,249.5C 316.993,248.871 301.66,249.537 286.5,251.5C 285.817,251.137 285.15,250.804 284.5,250.5C 282.801,250.34 281.134,250.506 279.5,251C 278.067,253.173 276.734,255.34 275.5,257.5C 274.957,257.44 274.624,257.107 274.5,256.5C 275.167,254.833 275.833,253.167 276.5,251.5C 276.043,250.702 275.376,250.369 274.5,250.5C 271.833,250.5 269.167,250.5 266.5,250.5C 266.122,252.921 265.455,255.254 264.5,257.5C 263.761,257.631 263.094,257.464 262.5,257C 263.24,255.215 263.907,253.382 264.5,251.5C 264.043,250.702 263.376,250.369 262.5,250.5C 260.708,250.366 259.042,250.699 257.5,251.5C 254.753,251.813 252.086,251.48 249.5,250.5C 249.709,249.914 250.043,249.414 250.5,249C 255.167,248 259.833,247 264.5,246C 278.085,245.773 291.585,244.607 305,242.5C 306.256,242.648 307.423,242.982 308.5,243.5 Z"/></g>
<g><path style="opacity:1" fill="#db9f5d" d="M 201.5,240.5 C 202.449,239.848 203.615,239.514 205,239.5C 220.844,240.243 236.677,241.243 252.5,242.5C 268.274,241.104 284.107,240.104 300,239.5C 302.255,239.566 304.422,239.899 306.5,240.5C 287.649,242.04 268.649,243.54 249.5,245C 244.565,247.97 239.232,249.47 233.5,249.5C 233.5,251.167 233.5,252.833 233.5,254.5C 232.566,253.432 232.232,252.099 232.5,250.5C 231.167,250.5 229.833,250.5 228.5,250.5C 227.167,250.5 225.833,250.5 224.5,250.5C 223.833,255.833 223.167,255.833 222.5,250.5C 215.687,249.509 208.687,249.175 201.5,249.5C 201.5,251.167 201.5,252.833 201.5,254.5C 201.567,255.959 201.234,257.292 200.5,258.5C 198.152,258.33 195.818,257.997 193.5,257.5C 191.97,257.36 190.97,256.693 190.5,255.5C 191.038,253.883 191.371,252.216 191.5,250.5C 190.5,250.5 189.5,250.5 188.5,250.5C 187.833,250.5 187.167,250.5 186.5,250.5C 185.5,250.5 184.5,250.5 183.5,250.5C 183.768,252.099 183.434,253.432 182.5,254.5C 180.833,254.5 179.167,254.5 177.5,254.5C 177.768,252.901 177.434,251.568 176.5,250.5C 175.833,250.5 175.167,250.5 174.5,250.5C 174.44,249.957 174.107,249.624 173.5,249.5C 172.571,250.689 172.238,252.022 172.5,253.5C 169.833,253.5 167.167,253.5 164.5,253.5C 164.5,250.5 164.5,247.5 164.5,244.5C 172.901,244.621 181.234,245.121 189.5,246C 190.12,243.527 190.786,241.027 191.5,238.5C 194.779,239.473 197.779,240.973 200.5,243C 209.98,243.712 219.314,244.878 228.5,246.5C 230.535,245.959 232.535,245.292 234.5,244.5C 233.667,244.167 232.833,243.833 232,243.5C 223.523,242.74 215.023,242.24 206.5,242C 204.846,241.392 203.179,240.892 201.5,240.5 Z"/></g>
<g><path style="opacity:1" fill="#18120e" d="M 222.5,250.5 C 223.167,255.833 223.833,255.833 224.5,250.5C 225.833,250.5 227.167,250.5 228.5,250.5C 225.666,255.49 223.499,260.823 222,266.5C 221.333,267.167 220.667,267.833 220,268.5C 219.346,258.636 218.179,258.303 216.5,267.5C 215.5,267.5 214.5,267.5 213.5,267.5C 215.382,261.861 217.049,256.195 218.5,250.5C 219.833,250.5 221.167,250.5 222.5,250.5 Z"/></g>
<g><path style="opacity:1" fill="#a8784d" d="M 222.5,250.5 C 221.167,250.5 219.833,250.5 218.5,250.5C 217.049,256.195 215.382,261.861 213.5,267.5C 214.5,267.5 215.5,267.5 216.5,267.5C 214.653,268.573 212.653,268.573 210.5,267.5C 208.735,267.815 207.069,267.815 205.5,267.5C 208.027,262.432 210.027,257.099 211.5,251.5C 211.167,251.167 210.833,250.833 210.5,250.5C 207.824,256.629 206.491,256.629 206.5,250.5C 205.167,250.5 203.833,250.5 202.5,250.5C 202.768,252.099 202.434,253.432 201.5,254.5C 201.5,252.833 201.5,251.167 201.5,249.5C 208.687,249.175 215.687,249.509 222.5,250.5 Z"/></g>
<g><path style="opacity:1" fill="#0d0c0d" d="M 210.5,267.5 C 209.761,267.631 209.094,267.464 208.5,267C 210.874,261.713 212.54,256.213 213.5,250.5C 214.5,250.5 215.5,250.5 216.5,250.5C 214.238,256.034 212.238,261.7 210.5,267.5 Z"/></g>
<g><path style="opacity:1" fill="#96734b" d="M 186.5,250.5 C 187.167,250.5 187.833,250.5 188.5,250.5C 187.437,256.353 185.771,262.02 183.5,267.5C 182.5,266.167 181.5,266.167 180.5,267.5C 183.261,262.136 185.261,256.469 186.5,250.5 Z"/></g>
<g><path style="opacity:1" fill="#100d0b" d="M 205.5,267.5 C 204.835,265.302 204.168,262.969 203.5,260.5C 202.087,262.368 200.92,264.368 200,266.5C 199.282,267.451 198.449,267.617 197.5,267C 198.798,264.273 199.798,261.44 200.5,258.5C 201.234,257.292 201.567,255.959 201.5,254.5C 202.434,253.432 202.768,252.099 202.5,250.5C 203.833,250.5 205.167,250.5 206.5,250.5C 206.491,256.629 207.824,256.629 210.5,250.5C 210.833,250.833 211.167,251.167 211.5,251.5C 210.027,257.099 208.027,262.432 205.5,267.5 Z"/></g>
<g><path style="opacity:1" fill="#15100c" d="M 174.5,250.5 C 175.167,250.5 175.833,250.5 176.5,250.5C 175.68,254.796 174.346,258.963 172.5,263C 172.833,263.5 173.167,264 173.5,264.5C 174.167,263.833 174.833,263.167 175.5,262.5C 176.645,263.776 176.645,265.109 175.5,266.5C 173.167,267.833 170.833,267.833 168.5,266.5C 169.577,264.271 170.244,261.937 170.5,259.5C 172.786,256.625 174.119,253.625 174.5,250.5 Z"/></g>
<g><path style="opacity:1" fill="#ca925f" d="M 189.5,232.5 C 197.573,231.868 205.24,232.535 212.5,234.5C 205.183,233.882 197.849,233.549 190.5,233.5C 190.5,234.5 190.5,235.5 190.5,236.5C 194.264,237.548 197.931,238.881 201.5,240.5C 203.179,240.892 204.846,241.392 206.5,242C 215.023,242.24 223.523,242.74 232,243.5C 232.833,243.833 233.667,244.167 234.5,244.5C 232.535,245.292 230.535,245.959 228.5,246.5C 219.314,244.878 209.98,243.712 200.5,243C 197.779,240.973 194.779,239.473 191.5,238.5C 190.786,241.027 190.12,243.527 189.5,246C 181.234,245.121 172.901,244.621 164.5,244.5C 164.5,247.5 164.5,250.5 164.5,253.5C 167.167,253.5 169.833,253.5 172.5,253.5C 172.238,252.022 172.571,250.689 173.5,249.5C 174.107,249.624 174.44,249.957 174.5,250.5C 174.119,253.625 172.786,256.625 170.5,259.5C 168.621,259.607 168.288,259.107 169.5,258C 167.866,257.506 166.199,257.34 164.5,257.5C 164.5,258.833 164.5,260.167 164.5,261.5C 163.51,255.355 163.177,249.022 163.5,242.5C 170.268,242.2 176.935,242.867 183.5,244.5C 184.867,243.775 186.2,243.108 187.5,242.5C 187.369,243.376 187.702,244.043 188.5,244.5C 189.491,240.555 189.824,236.555 189.5,232.5 Z"/></g>
<g><path style="opacity:1" fill="#13100d" d="M 188.5,250.5 C 189.5,250.5 190.5,250.5 191.5,250.5C 191.371,252.216 191.038,253.883 190.5,255.5C 189.596,256.209 189.263,257.209 189.5,258.5C 188.222,259.749 187.222,261.249 186.5,263C 188.225,262.591 189.892,262.758 191.5,263.5C 190.754,264.736 190.421,266.07 190.5,267.5C 188.167,267.5 185.833,267.5 183.5,267.5C 185.771,262.02 187.437,256.353 188.5,250.5 Z"/></g>
<g><path style="opacity:1" fill="#1e1813" d="M 186.5,250.5 C 185.261,256.469 183.261,262.136 180.5,267.5C 179.624,267.631 178.957,267.298 178.5,266.5C 180.426,262.659 181.759,258.659 182.5,254.5C 183.434,253.432 183.768,252.099 183.5,250.5C 184.5,250.5 185.5,250.5 186.5,250.5 Z"/></g>
<g><path style="opacity:1" fill="#614a37" d="M 256.5,263.5 C 255.833,263.5 255.167,263.5 254.5,263.5C 253.89,262.609 253.557,261.609 253.5,260.5C 253.328,259.508 253.662,258.842 254.5,258.5C 254.369,259.376 254.702,260.043 255.5,260.5C 258.372,254.345 259.538,254.345 259,260.5C 257.955,261.373 257.122,262.373 256.5,263.5 Z"/></g>
<g><path style="opacity:1" fill="#5c4634" d="M 273.5,262.5 C 273.427,260.973 274.094,259.973 275.5,259.5C 275.905,260.55 276.571,260.55 277.5,259.5C 280.887,254.059 281.721,254.392 280,260.5C 278.211,262.229 276.044,262.896 273.5,262.5 Z"/></g>
<g><path style="opacity:1" fill="#140f0b" d="M 262.5,250.5 C 261.992,255.543 261.158,260.543 260,265.5C 259.29,266.973 258.124,267.64 256.5,267.5C 256.5,266.167 256.5,264.833 256.5,263.5C 257.122,262.373 257.955,261.373 259,260.5C 259.538,254.345 258.372,254.345 255.5,260.5C 254.702,260.043 254.369,259.376 254.5,258.5C 255.316,256.105 256.316,253.771 257.5,251.5C 259.042,250.699 260.708,250.366 262.5,250.5 Z"/></g>
<g><path style="opacity:1" fill="#a8744a" d="M 190.5,255.5 C 190.97,256.693 191.97,257.36 193.5,257.5C 195.818,257.997 198.152,258.33 200.5,258.5C 199.798,261.44 198.798,264.273 197.5,267C 198.449,267.617 199.282,267.451 200,266.5C 200.92,264.368 202.087,262.368 203.5,260.5C 204.168,262.969 204.835,265.302 205.5,267.5C 202.713,268.477 199.713,268.81 196.5,268.5C 196.558,265.336 197.224,262.336 198.5,259.5C 195.518,259.037 192.518,258.704 189.5,258.5C 189.263,257.209 189.596,256.209 190.5,255.5 Z"/></g>
<g><path style="opacity:1" fill="#201915" d="M 253.5,260.5 C 253.557,261.609 253.89,262.609 254.5,263.5C 254.206,266.646 252.539,267.813 249.5,267C 250.733,264.686 252.067,262.519 253.5,260.5 Z"/></g>
<g><path style="opacity:1" fill="#18130f" d="M 284.5,250.5 C 284.174,256.473 282.841,262.139 280.5,267.5C 279.5,267.5 278.5,267.5 277.5,267.5C 276.941,262.361 275.941,262.361 274.5,267.5C 273.448,267.649 272.448,267.483 271.5,267C 272.582,265.67 273.249,264.17 273.5,262.5C 276.044,262.896 278.211,262.229 280,260.5C 281.721,254.392 280.887,254.059 277.5,259.5C 276.571,260.55 275.905,260.55 275.5,259.5C 275.5,258.833 275.5,258.167 275.5,257.5C 276.734,255.34 278.067,253.173 279.5,251C 281.134,250.506 282.801,250.34 284.5,250.5 Z"/></g>
<g><path style="opacity:1" fill="#ad7a4d" d="M 262.5,250.5 C 263.376,250.369 264.043,250.702 264.5,251.5C 263.907,253.382 263.24,255.215 262.5,257C 263.094,257.464 263.761,257.631 264.5,257.5C 263.213,260.698 262.547,264.031 262.5,267.5C 264.833,267.5 267.167,267.5 269.5,267.5C 269.286,265.856 269.62,264.356 270.5,263C 268.869,261.164 268.202,261.664 268.5,264.5C 267.5,264.5 266.5,264.5 265.5,264.5C 266.556,260.832 267.722,257.165 269,253.5C 270.011,252.663 271.178,252.33 272.5,252.5C 272.34,254.199 272.506,255.866 273,257.5C 273.977,255.26 274.477,252.927 274.5,250.5C 275.376,250.369 276.043,250.702 276.5,251.5C 275.833,253.167 275.167,254.833 274.5,256.5C 274.624,257.107 274.957,257.44 275.5,257.5C 275.5,258.167 275.5,258.833 275.5,259.5C 274.094,259.973 273.427,260.973 273.5,262.5C 273.249,264.17 272.582,265.67 271.5,267C 272.448,267.483 273.448,267.649 274.5,267.5C 268.5,268.833 262.5,268.833 256.5,267.5C 258.124,267.64 259.29,266.973 260,265.5C 261.158,260.543 261.992,255.543 262.5,250.5 Z"/></g>
<g><path style="opacity:1" fill="#18120d" d="M 274.5,250.5 C 274.477,252.927 273.977,255.26 273,257.5C 272.506,255.866 272.34,254.199 272.5,252.5C 271.178,252.33 270.011,252.663 269,253.5C 267.722,257.165 266.556,260.832 265.5,264.5C 266.5,264.5 267.5,264.5 268.5,264.5C 268.202,261.664 268.869,261.164 270.5,263C 269.62,264.356 269.286,265.856 269.5,267.5C 267.167,267.5 264.833,267.5 262.5,267.5C 262.547,264.031 263.213,260.698 264.5,257.5C 265.455,255.254 266.122,252.921 266.5,250.5C 269.167,250.5 271.833,250.5 274.5,250.5 Z"/></g>
<g><path style="opacity:1" fill="#cb8c57" d="M 302.5,232.5 C 304.833,232.5 307.167,232.5 309.5,232.5C 309.5,235.833 309.5,239.167 309.5,242.5C 308.833,242.5 308.5,242.833 308.5,243.5C 307.423,242.982 306.256,242.648 305,242.5C 291.585,244.607 278.085,245.773 264.5,246C 259.833,247 255.167,248 250.5,249C 250.043,249.414 249.709,249.914 249.5,250.5C 252.086,251.48 254.753,251.813 257.5,251.5C 256.316,253.771 255.316,256.105 254.5,258.5C 253.662,258.842 253.328,259.508 253.5,260.5C 252.067,262.519 250.733,264.686 249.5,267C 252.539,267.813 254.206,266.646 254.5,263.5C 255.167,263.5 255.833,263.5 256.5,263.5C 256.5,264.833 256.5,266.167 256.5,267.5C 262.5,268.833 268.5,268.833 274.5,267.5C 275.941,262.361 276.941,262.361 277.5,267.5C 278.5,267.5 279.5,267.5 280.5,267.5C 281.117,267.389 281.617,267.056 282,266.5C 283.353,267.704 285.019,268.371 287,268.5C 288.986,268.431 290.486,267.765 291.5,266.5C 292.167,266.5 292.833,266.5 293.5,266.5C 293.5,266.833 293.5,267.167 293.5,267.5C 297.99,269.448 302.323,269.448 306.5,267.5C 307.183,265.824 308.517,265.157 310.5,265.5C 310.821,267.048 311.821,267.715 313.5,267.5C 315.067,266.319 315.901,264.653 316,262.5C 316.383,263.056 316.883,263.389 317.5,263.5C 319.758,263.775 320.092,264.775 318.5,266.5C 319.614,267.776 320.614,267.776 321.5,266.5C 325.11,267.624 328.776,268.624 332.5,269.5C 333.452,271.045 333.785,272.712 333.5,274.5C 329.384,275.953 325.051,276.62 320.5,276.5C 308.192,274.313 295.859,272.313 283.5,270.5C 278.722,270.706 274.055,271.373 269.5,272.5C 268.551,271.848 267.385,271.514 266,271.5C 250.982,274.41 235.816,275.244 220.5,274C 217.639,273.46 214.972,272.46 212.5,271C 214.087,270.138 215.754,269.471 217.5,269C 218.517,267.951 218.684,266.784 218,265.5C 217.722,266.416 217.222,267.082 216.5,267.5C 218.179,258.303 219.346,258.636 220,268.5C 220.667,267.833 221.333,267.167 222,266.5C 223.499,260.823 225.666,255.49 228.5,250.5C 229.833,250.5 231.167,250.5 232.5,250.5C 232.232,252.099 232.566,253.432 233.5,254.5C 233.5,252.833 233.5,251.167 233.5,249.5C 239.232,249.47 244.565,247.97 249.5,245C 268.649,243.54 287.649,242.04 306.5,240.5C 307.725,239.848 308.392,238.681 308.5,237C 308.167,235.833 307.833,234.667 307.5,233.5C 306.672,234.415 305.672,235.081 304.5,235.5C 292.865,234.541 281.198,234.208 269.5,234.5C 280.5,233.833 291.5,233.167 302.5,232.5 Z"/></g>
<g><path style="opacity:1" fill="#1d1611" d="M 237.5,264.5 C 237.5,265.5 237.5,266.5 237.5,267.5C 236.5,267.5 235.5,267.5 234.5,267.5C 234.433,266.041 234.766,264.708 235.5,263.5C 236.925,261.969 237.591,262.302 237.5,264.5 Z"/></g>
<g><path style="opacity:1" fill="#70563e" d="M 240.5,264.5 C 239.5,264.5 238.5,264.5 237.5,264.5C 237.591,262.302 236.925,261.969 235.5,263.5C 235.738,261.596 236.738,260.262 238.5,259.5C 238.905,260.55 239.571,260.55 240.5,259.5C 241.167,258.5 241.833,257.5 242.5,256.5C 243.616,259.448 242.616,261.614 239.5,263C 240.056,263.383 240.389,263.883 240.5,264.5 Z"/></g>
<g><path style="opacity:1" fill="#120c09" d="M 240.5,264.5 C 240.389,263.883 240.056,263.383 239.5,263C 242.616,261.614 243.616,259.448 242.5,256.5C 241.833,257.5 241.167,258.5 240.5,259.5C 239.571,260.55 238.905,260.55 238.5,259.5C 239.487,256.854 240.487,254.188 241.5,251.5C 243.045,250.548 244.712,250.215 246.5,250.5C 245.406,256.058 244.406,261.725 243.5,267.5C 242.5,267.5 241.5,267.5 240.5,267.5C 240.5,266.5 240.5,265.5 240.5,264.5 Z"/></g>
<g><path style="opacity:1" fill="#15110e" d="M 233.5,254.5 C 234.434,253.432 234.768,252.099 234.5,250.5C 235.675,250.281 236.675,250.614 237.5,251.5C 236.07,257.134 234.07,262.467 231.5,267.5C 229.167,267.5 226.833,267.5 224.5,267.5C 224.544,264.684 225.544,262.351 227.5,260.5C 228.167,261.833 228.833,263.167 229.5,264.5C 231.698,261.503 233.031,258.169 233.5,254.5 Z"/></g>
<g><path style="opacity:1" fill="#d59558" d="M 176.5,250.5 C 177.434,251.568 177.768,252.901 177.5,254.5C 179.167,254.5 180.833,254.5 182.5,254.5C 181.759,258.659 180.426,262.659 178.5,266.5C 178.957,267.298 179.624,267.631 180.5,267.5C 181.5,266.167 182.5,266.167 183.5,267.5C 185.833,267.5 188.167,267.5 190.5,267.5C 190.421,266.07 190.754,264.736 191.5,263.5C 189.892,262.758 188.225,262.591 186.5,263C 187.222,261.249 188.222,259.749 189.5,258.5C 192.518,258.704 195.518,259.037 198.5,259.5C 197.224,262.336 196.558,265.336 196.5,268.5C 199.713,268.81 202.713,268.477 205.5,267.5C 207.069,267.815 208.735,267.815 210.5,267.5C 212.653,268.573 214.653,268.573 216.5,267.5C 217.222,267.082 217.722,266.416 218,265.5C 218.684,266.784 218.517,267.951 217.5,269C 215.754,269.471 214.087,270.138 212.5,271C 214.972,272.46 217.639,273.46 220.5,274C 235.816,275.244 250.982,274.41 266,271.5C 267.385,271.514 268.551,271.848 269.5,272.5C 265.033,273.726 260.699,275.559 256.5,278C 253.567,278.893 250.567,279.393 247.5,279.5C 235.837,278.055 224.171,277.721 212.5,278.5C 204.195,277.403 195.861,276.569 187.5,276C 179.349,273.718 171.016,272.885 162.5,273.5C 162.338,271.473 162.505,269.473 163,267.5C 164.586,266.624 166.086,265.624 167.5,264.5C 166.007,263.859 165.007,262.859 164.5,261.5C 164.5,260.167 164.5,258.833 164.5,257.5C 166.199,257.34 167.866,257.506 169.5,258C 168.288,259.107 168.621,259.607 170.5,259.5C 170.244,261.937 169.577,264.271 168.5,266.5C 170.833,267.833 173.167,267.833 175.5,266.5C 176.645,265.109 176.645,263.776 175.5,262.5C 174.833,263.167 174.167,263.833 173.5,264.5C 173.167,264 172.833,263.5 172.5,263C 174.346,258.963 175.68,254.796 176.5,250.5 Z"/></g>
<g><path style="opacity:1" fill="#af794b" d="M 332.5,231.5 C 334.308,232.918 334.975,234.918 334.5,237.5C 330.595,237.476 327.261,238.81 324.5,241.5C 327.837,242.089 331.004,243.089 334,244.5C 334.498,247.482 334.665,250.482 334.5,253.5C 333.5,253.5 332.5,253.5 331.5,253.5C 331.5,254.833 331.5,256.167 331.5,257.5C 332.5,257.5 333.5,257.5 334.5,257.5C 334.5,264.833 334.5,272.167 334.5,279.5C 312.182,278.411 289.848,278.245 267.5,279C 263.623,279.257 259.957,280.257 256.5,282C 232.493,282.467 208.493,282.133 184.5,281C 180.539,279.525 176.372,278.692 172,278.5C 169.143,278.968 166.309,279.134 163.5,279C 162.594,277.301 162.261,275.467 162.5,273.5C 171.016,272.885 179.349,273.718 187.5,276C 195.861,276.569 204.195,277.403 212.5,278.5C 224.171,277.721 235.837,278.055 247.5,279.5C 250.567,279.393 253.567,278.893 256.5,278C 260.699,275.559 265.033,273.726 269.5,272.5C 274.055,271.373 278.722,270.706 283.5,270.5C 295.859,272.313 308.192,274.313 320.5,276.5C 325.051,276.62 329.384,275.953 333.5,274.5C 333.785,272.712 333.452,271.045 332.5,269.5C 328.776,268.624 325.11,267.624 321.5,266.5C 321.263,265.209 321.596,264.209 322.5,263.5C 322.62,264.586 323.287,265.253 324.5,265.5C 327.208,266.041 329.874,266.708 332.5,267.5C 333.452,265.955 333.785,264.288 333.5,262.5C 331.409,262.682 329.409,262.348 327.5,261.5C 326.818,262.243 326.151,262.909 325.5,263.5C 326.253,259.323 327.586,255.323 329.5,251.5C 328.726,250.289 327.893,250.289 327,251.5C 325.855,254.432 325.022,257.432 324.5,260.5C 323.5,260.5 322.5,260.5 321.5,260.5C 321.949,257.359 322.949,254.359 324.5,251.5C 323.311,250.571 321.978,250.238 320.5,250.5C 319.833,250.5 319.167,250.5 318.5,250.5C 315.905,251.426 313.905,253.093 312.5,255.5C 311.548,253.955 311.215,252.288 311.5,250.5C 310.5,250.5 309.5,250.5 308.5,250.5C 307.473,256.381 305.473,261.881 302.5,267C 303.448,267.483 304.448,267.649 305.5,267.5C 305.833,267.5 306.167,267.5 306.5,267.5C 302.323,269.448 297.99,269.448 293.5,267.5C 295.924,267.808 298.257,267.474 300.5,266.5C 301.246,265.264 301.579,263.93 301.5,262.5C 300.325,262.719 299.325,262.386 298.5,261.5C 300.028,260.139 301.695,258.972 303.5,258C 302.552,257.517 301.552,257.351 300.5,257.5C 300.238,256.022 300.571,254.689 301.5,253.5C 302.524,254.853 303.857,255.52 305.5,255.5C 305.421,254.07 305.754,252.736 306.5,251.5C 304.257,250.526 301.924,250.192 299.5,250.5C 297.503,255.811 295.503,261.145 293.5,266.5C 292.833,266.5 292.167,266.5 291.5,266.5C 290.486,267.765 288.986,268.431 287,268.5C 285.019,268.371 283.353,267.704 282,266.5C 281.617,267.056 281.117,267.389 280.5,267.5C 282.841,262.139 284.174,256.473 284.5,250.5C 285.15,250.804 285.817,251.137 286.5,251.5C 301.66,249.537 316.993,248.871 332.5,249.5C 332.5,247.833 332.5,246.167 332.5,244.5C 326.255,244.134 320.089,243.467 314,242.5C 313.51,243.793 313.343,245.127 313.5,246.5C 310.715,247.084 309.048,246.084 308.5,243.5C 308.5,242.833 308.833,242.5 309.5,242.5C 310.779,243.715 311.779,243.382 312.5,241.5C 317.226,242.383 321.226,241.216 324.5,238C 329.056,237.917 331.722,235.751 332.5,231.5 Z"/></g>
<g><path style="opacity:1" fill="#da9859" d="M 322.5,263.5 C 323.5,263.5 324.5,263.5 325.5,263.5C 326.151,262.909 326.818,262.243 327.5,261.5C 329.409,262.348 331.409,262.682 333.5,262.5C 333.785,264.288 333.452,265.955 332.5,267.5C 329.874,266.708 327.208,266.041 324.5,265.5C 323.287,265.253 322.62,264.586 322.5,263.5 Z"/></g>
<g><path style="opacity:1" fill="#19130f" d="M 291.5,266.5 C 288.946,267.388 286.279,267.721 283.5,267.5C 284.651,261.632 286.317,255.966 288.5,250.5C 291.167,250.5 293.833,250.5 296.5,250.5C 295.143,255.926 293.477,261.259 291.5,266.5 Z"/></g>
<g><path style="opacity:1" fill="#ac7a50" d="M 290.5,253.5 C 291.675,253.281 292.675,253.614 293.5,254.5C 287.668,267.831 286.668,267.498 290.5,253.5 Z"/></g>
<g><path style="opacity:1" fill="#0e0b0a" d="M 320.5,250.5 C 321.978,250.238 323.311,250.571 324.5,251.5C 322.949,254.359 321.949,257.359 321.5,260.5C 322.5,260.5 323.5,260.5 324.5,260.5C 325.022,257.432 325.855,254.432 327,251.5C 327.893,250.289 328.726,250.289 329.5,251.5C 327.586,255.323 326.253,259.323 325.5,263.5C 324.5,263.5 323.5,263.5 322.5,263.5C 321.596,264.209 321.263,265.209 321.5,266.5C 320.614,267.776 319.614,267.776 318.5,266.5C 320.092,264.775 319.758,263.775 317.5,263.5C 319.526,259.419 320.526,255.085 320.5,250.5 Z"/></g>
<g><path style="opacity:1" fill="#927157" d="M 318.5,250.5 C 319.167,250.5 319.833,250.5 320.5,250.5C 320.526,255.085 319.526,259.419 317.5,263.5C 316.883,263.389 316.383,263.056 316,262.5C 315.901,264.653 315.067,266.319 313.5,267.5C 315.644,262.004 317.31,256.337 318.5,250.5 Z"/></g>
<g><path style="opacity:1" fill="#110f0d" d="M 318.5,250.5 C 317.31,256.337 315.644,262.004 313.5,267.5C 311.821,267.715 310.821,267.048 310.5,265.5C 311.586,265.38 312.253,264.713 312.5,263.5C 312.167,262.833 311.833,262.167 311.5,261.5C 309.793,265.136 308.626,265.136 308,261.5C 306.337,263.158 305.504,265.158 305.5,267.5C 304.448,267.649 303.448,267.483 302.5,267C 305.473,261.881 307.473,256.381 308.5,250.5C 309.5,250.5 310.5,250.5 311.5,250.5C 311.215,252.288 311.548,253.955 312.5,255.5C 313.905,253.093 315.905,251.426 318.5,250.5 Z"/></g>
<g><path style="opacity:1" fill="#5e4f45" d="M 310.5,265.5 C 308.517,265.157 307.183,265.824 306.5,267.5C 306.167,267.5 305.833,267.5 305.5,267.5C 305.504,265.158 306.337,263.158 308,261.5C 308.626,265.136 309.793,265.136 311.5,261.5C 311.833,262.167 312.167,262.833 312.5,263.5C 312.253,264.713 311.586,265.38 310.5,265.5 Z"/></g>
<g><path style="opacity:1" fill="#17120f" d="M 293.5,267.5 C 293.5,267.167 293.5,266.833 293.5,266.5C 295.503,261.145 297.503,255.811 299.5,250.5C 301.924,250.192 304.257,250.526 306.5,251.5C 305.754,252.736 305.421,254.07 305.5,255.5C 303.857,255.52 302.524,254.853 301.5,253.5C 300.571,254.689 300.238,256.022 300.5,257.5C 301.552,257.351 302.552,257.517 303.5,258C 301.695,258.972 300.028,260.139 298.5,261.5C 299.325,262.386 300.325,262.719 301.5,262.5C 301.579,263.93 301.246,265.264 300.5,266.5C 298.257,267.474 295.924,267.808 293.5,267.5 Z"/></g>
</svg>
