<?xml version="1.0" encoding="UTF-8"?>
<!DOCTYPE svg PUBLIC "-//W3C//DTD SVG 1.1//EN" "http://www.w3.org/Graphics/SVG/1.1/DTD/svg11.dtd">
<svg xmlns="http://www.w3.org/2000/svg" version="1.1" width="500px" height="500px" style="shape-rendering:geometricPrecision; text-rendering:geometricPrecision; image-rendering:optimizeQuality; fill-rule:evenodd; clip-rule:evenodd" xmlns:xlink="http://www.w3.org/1999/xlink">
<g><path style="opacity:1" fill="#fefefe" d="M -0.5,-0.5 C 166.167,-0.5 332.833,-0.5 499.5,-0.5C 499.5,166.167 499.5,332.833 499.5,499.5C 332.833,499.5 166.167,499.5 -0.5,499.5C -0.5,332.833 -0.5,166.167 -0.5,-0.5 Z"/></g>
<g><path style="opacity:1" fill="#5887e6" d="M 259.5,142.5 C 279.5,142.5 299.5,142.5 319.5,142.5C 319.5,143.5 319.5,144.5 319.5,145.5C 317.089,145.137 315.589,146.137 315,148.5C 313.984,147.366 313.317,147.699 313,149.5C 312.667,149.167 312.333,148.833 312,148.5C 310.921,150.394 309.587,150.727 308,149.5C 303.466,150.873 299.132,152.54 295,154.5C 294,154.167 293,153.833 292,153.5C 288.358,154.817 284.691,156.151 281,157.5C 278.88,156.541 276.713,156.374 274.5,157C 262.057,160.746 249.724,164.912 237.5,169.5C 232.717,167.819 229.05,168.653 226.5,172C 223.776,172.27 221.109,172.77 218.5,173.5C 217.284,172.998 216.117,172.665 215,172.5C 214.487,174.521 213.32,176.021 211.5,177C 207.167,177.333 202.833,177.667 198.5,178C 188.758,185.304 177.758,188.971 165.5,189C 166.328,189.915 167.328,190.581 168.5,191C 166.5,191.333 164.5,191.667 162.5,192C 163.711,192.893 163.711,193.726 162.5,194.5C 160.618,195.093 158.785,195.76 157,196.5C 156.51,197.793 156.343,199.127 156.5,200.5C 153.319,200.742 150.319,200.742 147.5,200.5C 145.805,201.174 144.138,201.841 142.5,202.5C 142.5,186.5 142.5,170.5 142.5,154.5C 144.228,155.379 146.061,156.046 148,156.5C 150.055,155.15 151.555,155.483 152.5,157.5C 153.086,157.291 153.586,156.957 154,156.5C 155.067,158.283 156.567,158.783 158.5,158C 157.66,156.334 158.16,156.167 160,157.5C 163.256,156.652 166.589,155.985 170,155.5C 171.756,156.805 173.423,157.472 175,157.5C 178.333,156.167 181.667,154.833 185,153.5C 185.388,154.428 186.055,155.095 187,155.5C 193.806,152.08 201.64,151.08 210.5,152.5C 214.217,152.205 217.717,151.205 221,149.5C 226.256,150.399 231.422,150.732 236.5,150.5C 237.468,149.511 238.635,148.844 240,148.5C 246.481,148.244 252.647,146.911 258.5,144.5C 259.298,144.043 259.631,143.376 259.5,142.5 Z"/></g>
<g><path style="opacity:1" fill="#4578dd" d="M 355.5,147.5 C 355.5,154.167 355.5,160.833 355.5,167.5C 351.832,166.582 348.332,165.248 345,163.5C 341.925,164.951 338.759,166.284 335.5,167.5C 334.833,167.167 334.167,166.833 333.5,166.5C 333.141,167.917 331.975,169.25 330,170.5C 328.732,170.384 327.398,170.051 326,169.5C 323.53,171.438 320.696,172.604 317.5,173C 320.131,174.691 319.797,175.858 316.5,176.5C 314.679,179.076 312.179,181.076 309,182.5C 308.667,182.167 308.333,181.833 308,181.5C 306.665,183.605 304.998,184.271 303,183.5C 299.989,185.124 296.822,186.624 293.5,188C 295.834,190.842 295.168,191.675 291.5,190.5C 289.431,190.824 289.098,191.658 290.5,193C 286.621,195.94 282.288,197.774 277.5,198.5C 276.555,200.565 275.888,202.399 275.5,204C 278.327,204.701 280.994,205.701 283.5,207C 282.167,207.333 280.833,207.667 279.5,208C 280.649,209.744 281.983,209.911 283.5,208.5C 284.466,206.604 284.799,204.604 284.5,202.5C 285.5,202.5 286.5,202.5 287.5,202.5C 287.706,206.793 287.373,211.126 286.5,215.5C 283.423,215.179 281.09,216.179 279.5,218.5C 273.782,215.314 268.448,211.648 263.5,207.5C 264.953,206.175 264.619,205.342 262.5,205C 263.841,203.705 265.174,203.205 266.5,203.5C 264.61,202.576 263.11,201.243 262,199.5C 261.439,200.022 260.772,200.355 260,200.5C 255.896,198.243 251.562,196.576 247,195.5C 245.55,198.642 243.05,200.308 239.5,200.5C 238.147,201.524 237.48,202.857 237.5,204.5C 233.806,204.848 230.806,206.515 228.5,209.5C 227.833,209.167 227.167,208.833 226.5,208.5C 226.611,210.109 226.278,211.775 225.5,213.5C 220.678,217.411 215.678,221.078 210.5,224.5C 208.847,224.66 207.514,225.326 206.5,226.5C 204.771,227.117 203.271,228.117 202,229.5C 201.833,232.833 201.667,236.167 201.5,239.5C 201.579,243.358 202.246,247.024 203.5,250.5C 202.271,251.281 200.938,251.781 199.5,252C 195.968,256.36 192.301,260.527 188.5,264.5C 187.847,259.938 189.681,256.938 194,255.5C 193.346,252.648 194.513,250.481 197.5,249C 195.279,248.445 192.946,248.612 190.5,249.5C 190.541,253.243 189.874,253.41 188.5,250C 188.833,249.667 189.167,249.333 189.5,249C 186.666,248.955 184.166,248.121 182,246.5C 179.053,249.096 175.553,250.43 171.5,250.5C 171.649,249.448 171.483,248.448 171,247.5C 170.333,248.833 169.667,248.833 169,247.5C 165.764,250.137 162.098,252.137 158,253.5C 155.196,252.892 152.196,251.892 149,250.5C 146.914,251.418 144.747,252.085 142.5,252.5C 142.5,239.833 142.5,227.167 142.5,214.5C 145.166,215.17 147.666,215.17 150,214.5C 151.892,215.13 153.559,216.13 155,217.5C 155.249,216.376 155.749,215.376 156.5,214.5C 158.416,215.248 160.416,215.248 162.5,214.5C 162.626,211.442 164.126,211.109 167,213.5C 167.483,212.552 167.649,211.552 167.5,210.5C 169.965,211.465 172.465,212.465 175,213.5C 176.653,213.18 177.653,212.18 178,210.5C 178.915,211.328 179.581,212.328 180,213.5C 185.564,210.467 191.397,207.8 197.5,205.5C 199.756,204.579 200.756,202.912 200.5,200.5C 203.431,199.994 206.265,199.994 209,200.5C 211.231,198.8 213.731,197.8 216.5,197.5C 216.281,196.325 216.614,195.325 217.5,194.5C 218.079,197.116 219.579,197.116 222,194.5C 222.667,197.167 223.333,197.167 224,194.5C 224.741,195.641 225.575,195.641 226.5,194.5C 228.001,195.752 229.668,196.752 231.5,197.5C 232.583,196.635 232.749,195.635 232,194.5C 230.601,193.773 229.101,193.273 227.5,193C 229.167,192.333 230.833,192.333 232.5,193C 233.333,195.167 234.833,196.667 237,197.5C 238.217,196.614 239.551,195.614 241,194.5C 241.388,195.428 242.055,196.095 243,196.5C 245.005,195.217 247.172,194.217 249.5,193.5C 250.086,193.709 250.586,194.043 251,194.5C 252.167,192.667 253.333,190.833 254.5,189C 254.167,188.667 253.833,188.333 253.5,188C 255.642,186.196 257.808,184.363 260,182.5C 260.718,183.451 261.551,183.617 262.5,183C 264.746,181.743 266.079,179.91 266.5,177.5C 268.604,177.799 270.604,177.466 272.5,176.5C 271.624,175.749 270.624,175.249 269.5,175C 270.833,173.667 272.167,172.333 273.5,171C 274.449,170.383 275.282,170.549 276,171.5C 276.745,170.01 277.912,169.01 279.5,168.5C 284.123,170.572 287.79,169.572 290.5,165.5C 291.192,166.025 291.692,166.692 292,167.5C 292.49,166.207 292.657,164.873 292.5,163.5C 294.912,163.331 297.079,163.997 299,165.5C 302.441,164.618 305.941,164.284 309.5,164.5C 309.5,163.167 309.5,161.833 309.5,160.5C 311.199,160.66 312.866,160.494 314.5,160C 318.967,157.509 323.634,155.509 328.5,154C 332.751,152.805 337.085,152.305 341.5,152.5C 341.5,151.5 341.5,150.5 341.5,149.5C 342.822,149.33 343.989,149.663 345,150.5C 348.279,148.809 351.779,147.809 355.5,147.5 Z"/></g>
<g><path style="opacity:1" fill="#6391ee" d="M 259.5,142.5 C 259.631,143.376 259.298,144.043 258.5,144.5C 252.647,146.911 246.481,148.244 240,148.5C 238.635,148.844 237.468,149.511 236.5,150.5C 231.422,150.732 226.256,150.399 221,149.5C 217.717,151.205 214.217,152.205 210.5,152.5C 201.64,151.08 193.806,152.08 187,155.5C 186.055,155.095 185.388,154.428 185,153.5C 181.667,154.833 178.333,156.167 175,157.5C 173.423,157.472 171.756,156.805 170,155.5C 166.589,155.985 163.256,156.652 160,157.5C 158.16,156.167 157.66,156.334 158.5,158C 156.567,158.783 155.067,158.283 154,156.5C 153.586,156.957 153.086,157.291 152.5,157.5C 151.555,155.483 150.055,155.15 148,156.5C 146.061,156.046 144.228,155.379 142.5,154.5C 142.5,150.5 142.5,146.5 142.5,142.5C 181.5,142.5 220.5,142.5 259.5,142.5 Z"/></g>
<g><path style="opacity:1" fill="#4f7fe1" d="M 319.5,142.5 C 331.5,142.5 343.5,142.5 355.5,142.5C 355.5,144.167 355.5,145.833 355.5,147.5C 351.779,147.809 348.279,148.809 345,150.5C 343.989,149.663 342.822,149.33 341.5,149.5C 341.5,150.5 341.5,151.5 341.5,152.5C 337.085,152.305 332.751,152.805 328.5,154C 323.634,155.509 318.967,157.509 314.5,160C 312.866,160.494 311.199,160.66 309.5,160.5C 309.5,161.833 309.5,163.167 309.5,164.5C 305.941,164.284 302.441,164.618 299,165.5C 297.079,163.997 294.912,163.331 292.5,163.5C 292.657,164.873 292.49,166.207 292,167.5C 291.692,166.692 291.192,166.025 290.5,165.5C 287.79,169.572 284.123,170.572 279.5,168.5C 277.912,169.01 276.745,170.01 276,171.5C 275.282,170.549 274.449,170.383 273.5,171C 272.167,172.333 270.833,173.667 269.5,175C 270.624,175.249 271.624,175.749 272.5,176.5C 270.604,177.466 268.604,177.799 266.5,177.5C 266.079,179.91 264.746,181.743 262.5,183C 261.551,183.617 260.718,183.451 260,182.5C 257.808,184.363 255.642,186.196 253.5,188C 253.833,188.333 254.167,188.667 254.5,189C 253.333,190.833 252.167,192.667 251,194.5C 250.586,194.043 250.086,193.709 249.5,193.5C 247.172,194.217 245.005,195.217 243,196.5C 242.055,196.095 241.388,195.428 241,194.5C 239.551,195.614 238.217,196.614 237,197.5C 234.833,196.667 233.333,195.167 232.5,193C 230.833,192.333 229.167,192.333 227.5,193C 229.101,193.273 230.601,193.773 232,194.5C 232.749,195.635 232.583,196.635 231.5,197.5C 229.668,196.752 228.001,195.752 226.5,194.5C 225.575,195.641 224.741,195.641 224,194.5C 223.333,197.167 222.667,197.167 222,194.5C 219.579,197.116 218.079,197.116 217.5,194.5C 216.614,195.325 216.281,196.325 216.5,197.5C 213.731,197.8 211.231,198.8 209,200.5C 206.265,199.994 203.431,199.994 200.5,200.5C 200.756,202.912 199.756,204.579 197.5,205.5C 191.397,207.8 185.564,210.467 180,213.5C 179.581,212.328 178.915,211.328 178,210.5C 177.653,212.18 176.653,213.18 175,213.5C 172.465,212.465 169.965,211.465 167.5,210.5C 167.649,211.552 167.483,212.552 167,213.5C 164.126,211.109 162.626,211.442 162.5,214.5C 160.416,215.248 158.416,215.248 156.5,214.5C 155.749,215.376 155.249,216.376 155,217.5C 153.559,216.13 151.892,215.13 150,214.5C 147.666,215.17 145.166,215.17 142.5,214.5C 142.5,210.5 142.5,206.5 142.5,202.5C 144.138,201.841 145.805,201.174 147.5,200.5C 150.319,200.742 153.319,200.742 156.5,200.5C 156.343,199.127 156.51,197.793 157,196.5C 158.785,195.76 160.618,195.093 162.5,194.5C 163.711,193.726 163.711,192.893 162.5,192C 164.5,191.667 166.5,191.333 168.5,191C 167.328,190.581 166.328,189.915 165.5,189C 177.758,188.971 188.758,185.304 198.5,178C 202.833,177.667 207.167,177.333 211.5,177C 213.32,176.021 214.487,174.521 215,172.5C 216.117,172.665 217.284,172.998 218.5,173.5C 221.109,172.77 223.776,172.27 226.5,172C 229.05,168.653 232.717,167.819 237.5,169.5C 249.724,164.912 262.057,160.746 274.5,157C 276.713,156.374 278.88,156.541 281,157.5C 284.691,156.151 288.358,154.817 292,153.5C 293,153.833 294,154.167 295,154.5C 299.132,152.54 303.466,150.873 308,149.5C 309.587,150.727 310.921,150.394 312,148.5C 312.333,148.833 312.667,149.167 313,149.5C 313.317,147.699 313.984,147.366 315,148.5C 315.589,146.137 317.089,145.137 319.5,145.5C 319.5,144.5 319.5,143.5 319.5,142.5 Z"/></g>
<g><path style="opacity:1" fill="#3b70d9" d="M 355.5,167.5 C 355.5,179.833 355.5,192.167 355.5,204.5C 353.549,204.773 352.049,204.107 351,202.5C 350.612,203.428 349.945,204.095 349,204.5C 347.044,204.339 345.044,204.006 343,203.5C 340.86,204.728 339.193,206.395 338,208.5C 337.667,208.167 337.333,207.833 337,207.5C 335.866,210.258 334.366,212.758 332.5,215C 333.641,215.741 333.641,216.575 332.5,217.5C 329.553,218.321 326.553,218.821 323.5,219C 321.445,221.055 319.112,222.721 316.5,224C 316.957,224.414 317.291,224.914 317.5,225.5C 315.895,228.314 314.895,231.314 314.5,234.5C 313.448,234.351 312.448,234.517 311.5,235C 308.982,237.52 307.315,240.52 306.5,244C 307.294,246.024 306.961,248.024 305.5,250C 303.144,250.155 300.811,250.155 298.5,250C 299.833,250.667 299.833,251.333 298.5,252C 301.997,253.411 304.664,255.744 306.5,259C 305.748,259.671 305.414,260.504 305.5,261.5C 302.215,257.548 298.548,253.881 294.5,250.5C 294.808,249.692 295.308,249.025 296,248.5C 296.667,242.167 296.667,235.833 296,229.5C 294.871,227.859 293.371,226.859 291.5,226.5C 287.537,223.846 283.537,221.18 279.5,218.5C 281.09,216.179 283.423,215.179 286.5,215.5C 287.373,211.126 287.706,206.793 287.5,202.5C 286.5,202.5 285.5,202.5 284.5,202.5C 284.799,204.604 284.466,206.604 283.5,208.5C 281.983,209.911 280.649,209.744 279.5,208C 280.833,207.667 282.167,207.333 283.5,207C 280.994,205.701 278.327,204.701 275.5,204C 275.888,202.399 276.555,200.565 277.5,198.5C 282.288,197.774 286.621,195.94 290.5,193C 289.098,191.658 289.431,190.824 291.5,190.5C 295.168,191.675 295.834,190.842 293.5,188C 296.822,186.624 299.989,185.124 303,183.5C 304.998,184.271 306.665,183.605 308,181.5C 308.333,181.833 308.667,182.167 309,182.5C 312.179,181.076 314.679,179.076 316.5,176.5C 319.797,175.858 320.131,174.691 317.5,173C 320.696,172.604 323.53,171.438 326,169.5C 327.398,170.051 328.732,170.384 330,170.5C 331.975,169.25 333.141,167.917 333.5,166.5C 334.167,166.833 334.833,167.167 335.5,167.5C 338.759,166.284 341.925,164.951 345,163.5C 348.332,165.248 351.832,166.582 355.5,167.5 Z"/></g>
<g><path style="opacity:1" fill="#3b71cd" d="M 263.5,207.5 C 262.167,213.167 262.167,218.833 263.5,224.5C 262.791,225.404 261.791,225.737 260.5,225.5C 260.666,219.158 260.5,212.825 260,206.5C 259.311,205.643 258.478,204.977 257.5,204.5C 256.18,212.323 256.18,219.99 257.5,227.5C 256.571,228.315 255.571,229.148 254.5,230C 255.094,230.464 255.761,230.631 256.5,230.5C 256.5,230.833 256.5,231.167 256.5,231.5C 256.167,232.167 255.833,232.833 255.5,233.5C 255.44,234.043 255.107,234.376 254.5,234.5C 254.167,233.833 253.833,233.167 253.5,232.5C 252.167,233.5 250.833,234.5 249.5,235.5C 248.378,234.37 247.044,233.703 245.5,233.5C 242.68,230.919 239.346,229.086 235.5,228C 226.924,225.644 218.257,224.977 209.5,226C 210.737,225.768 211.737,225.268 212.5,224.5C 219.5,223.167 226.5,223.167 233.5,224.5C 233.666,219.489 233.499,214.489 233,209.5C 230.843,211.495 228.343,212.828 225.5,213.5C 226.278,211.775 226.611,210.109 226.5,208.5C 227.167,208.833 227.833,209.167 228.5,209.5C 230.806,206.515 233.806,204.848 237.5,204.5C 237.48,202.857 238.147,201.524 239.5,200.5C 243.05,200.308 245.55,198.642 247,195.5C 251.562,196.576 255.896,198.243 260,200.5C 260.772,200.355 261.439,200.022 262,199.5C 263.11,201.243 264.61,202.576 266.5,203.5C 265.174,203.205 263.841,203.705 262.5,205C 264.619,205.342 264.953,206.175 263.5,207.5 Z"/></g>
<g><path style="opacity:1" fill="#f6f9fb" d="M 245.5,201.5 C 246.658,210.991 246.825,220.658 246,230.5C 245,229.833 244,229.167 243,228.5C 242.333,220.167 242.333,211.833 243,203.5C 243.995,202.934 244.828,202.267 245.5,201.5 Z"/></g>
<g><path style="opacity:1" fill="#f9fbfc" d="M 249.5,199.5 C 250.482,200.141 251.482,200.807 252.5,201.5C 253.665,211.149 253.832,220.816 253,230.5C 252,231.5 251,232.5 250,233.5C 249.5,222.172 249.333,210.838 249.5,199.5 Z"/></g>
<g><path style="opacity:1" fill="#f6f9fa" d="M 260.5,225.5 C 259.71,226.401 258.71,227.068 257.5,227.5C 256.18,219.99 256.18,212.323 257.5,204.5C 258.478,204.977 259.311,205.643 260,206.5C 260.5,212.825 260.666,219.158 260.5,225.5 Z"/></g>
<g><path style="opacity:1" fill="#dfe8f4" d="M 239.5,204.5 C 240.492,211.648 240.825,218.981 240.5,226.5C 239.07,226.579 237.736,226.246 236.5,225.5C 235.336,219.528 235.17,213.528 236,207.5C 237.518,206.837 238.685,205.837 239.5,204.5 Z"/></g>
<g><path style="opacity:1" fill="#eef3f8" d="M 263.5,207.5 C 268.448,211.648 273.782,215.314 279.5,218.5C 283.537,221.18 287.537,223.846 291.5,226.5C 282.374,222.373 273.041,221.707 263.5,224.5C 262.167,218.833 262.167,213.167 263.5,207.5 Z"/></g>
<g><path style="opacity:1" fill="#f5f8fb" d="M 212.5,224.5 C 211.833,224.5 211.167,224.5 210.5,224.5C 215.678,221.078 220.678,217.411 225.5,213.5C 228.343,212.828 230.843,211.495 233,209.5C 233.499,214.489 233.666,219.489 233.5,224.5C 226.5,223.167 219.5,223.167 212.5,224.5 Z"/></g>
<g><path style="opacity:1" fill="#2f66d3" d="M 355.5,204.5 C 355.5,215.833 355.5,227.167 355.5,238.5C 352.991,240.157 350.825,239.824 349,237.5C 347.62,240.058 346.12,240.058 344.5,237.5C 343.833,239.5 343.167,241.5 342.5,243.5C 338.901,246.03 335.734,248.364 333,250.5C 332.029,249.802 330.863,249.802 329.5,250.5C 326.914,252.043 324.414,253.709 322,255.5C 321.499,258.393 320.333,260.893 318.5,263C 320.22,263.807 320.554,265.307 319.5,267.5C 320.072,269.921 320.572,272.254 321,274.5C 319.18,271.783 317.014,269.283 314.5,267C 311.367,265.684 308.367,264.184 305.5,262.5C 305.5,262.167 305.5,261.833 305.5,261.5C 305.414,260.504 305.748,259.671 306.5,259C 304.664,255.744 301.997,253.411 298.5,252C 299.833,251.333 299.833,250.667 298.5,250C 300.811,250.155 303.144,250.155 305.5,250C 306.961,248.024 307.294,246.024 306.5,244C 307.315,240.52 308.982,237.52 311.5,235C 312.448,234.517 313.448,234.351 314.5,234.5C 314.895,231.314 315.895,228.314 317.5,225.5C 317.291,224.914 316.957,224.414 316.5,224C 319.112,222.721 321.445,221.055 323.5,219C 326.553,218.821 329.553,218.321 332.5,217.5C 333.641,216.575 333.641,215.741 332.5,215C 334.366,212.758 335.866,210.258 337,207.5C 337.333,207.833 337.667,208.167 338,208.5C 339.193,206.395 340.86,204.728 343,203.5C 345.044,204.006 347.044,204.339 349,204.5C 349.945,204.095 350.612,203.428 351,202.5C 352.049,204.107 353.549,204.773 355.5,204.5 Z"/></g>
<g><path style="opacity:1" fill="#345dc1" d="M 291.5,226.5 C 291.611,227.117 291.944,227.617 292.5,228C 279.835,227.997 267.502,229.83 255.5,233.5C 255.833,232.833 256.167,232.167 256.5,231.5C 259.516,230.438 262.516,229.271 265.5,228C 262.284,227.903 259.284,228.736 256.5,230.5C 255.761,230.631 255.094,230.464 254.5,230C 255.571,229.148 256.571,228.315 257.5,227.5C 258.71,227.068 259.71,226.401 260.5,225.5C 261.791,225.737 262.791,225.404 263.5,224.5C 273.041,221.707 282.374,222.373 291.5,226.5 Z"/></g>
<g><path style="opacity:1" fill="#7c97ca" d="M 272.5,225.5 C 277.899,225.309 283.233,225.809 288.5,227C 281.167,227.667 273.833,227.667 266.5,227C 268.708,226.809 270.708,226.309 272.5,225.5 Z"/></g>
<g><path style="opacity:1" fill="#f9fafc" d="M 206.5,226.5 C 208.988,228.388 211.988,229.055 215.5,228.5C 219.534,228.505 223.534,228.838 227.5,229.5C 228.568,230.434 229.901,230.768 231.5,230.5C 234.402,231.578 237.402,232.244 240.5,232.5C 241.736,234.043 243.402,235.043 245.5,235.5C 246.463,235.03 246.463,234.363 245.5,233.5C 247.044,233.703 248.378,234.37 249.5,235.5C 250.833,234.5 252.167,233.5 253.5,232.5C 253.833,233.167 254.167,233.833 254.5,234.5C 255.107,234.376 255.44,234.043 255.5,233.5C 267.502,229.83 279.835,227.997 292.5,228C 291.944,227.617 291.611,227.117 291.5,226.5C 293.371,226.859 294.871,227.859 296,229.5C 296.667,235.833 296.667,242.167 296,248.5C 295.308,249.025 294.808,249.692 294.5,250.5C 298.548,253.881 302.215,257.548 305.5,261.5C 305.5,261.833 305.5,262.167 305.5,262.5C 311.833,270.5 318.167,278.5 324.5,286.5C 274.04,285.178 223.207,285.178 172,286.5C 171.536,285.906 171.369,285.239 171.5,284.5C 177.167,277.833 182.833,271.167 188.5,264.5C 192.301,260.527 195.968,256.36 199.5,252C 200.938,251.781 202.271,251.281 203.5,250.5C 202.246,247.024 201.579,243.358 201.5,239.5C 201.667,236.167 201.833,232.833 202,229.5C 203.271,228.117 204.771,227.117 206.5,226.5 Z"/></g>
<g><path style="opacity:1" fill="#5181d2" d="M 215.5,228.5 C 220.057,227.245 224.723,227.412 229.5,229C 228.906,229.464 228.239,229.631 227.5,229.5C 223.534,228.838 219.534,228.505 215.5,228.5 Z"/></g>
<g><path style="opacity:1" fill="#4c77cd" d="M 231.5,230.5 C 234.748,229.459 237.748,230.126 240.5,232.5C 237.402,232.244 234.402,231.578 231.5,230.5 Z"/></g>
<g><path style="opacity:1" fill="#cadaee" d="M 210.5,224.5 C 211.167,224.5 211.833,224.5 212.5,224.5C 211.737,225.268 210.737,225.768 209.5,226C 218.257,224.977 226.924,225.644 235.5,228C 239.346,229.086 242.68,230.919 245.5,233.5C 243.883,232.962 242.216,232.629 240.5,232.5C 237.748,230.126 234.748,229.459 231.5,230.5C 229.901,230.768 228.568,230.434 227.5,229.5C 228.239,229.631 228.906,229.464 229.5,229C 224.723,227.412 220.057,227.245 215.5,228.5C 211.988,229.055 208.988,228.388 206.5,226.5C 207.514,225.326 208.847,224.66 210.5,224.5 Z"/></g>
<g><path style="opacity:1" fill="#9bb2db" d="M 256.5,231.5 C 256.5,231.167 256.5,230.833 256.5,230.5C 259.284,228.736 262.284,227.903 265.5,228C 262.516,229.271 259.516,230.438 256.5,231.5 Z"/></g>
<g><path style="opacity:1" fill="#5684ce" d="M 240.5,232.5 C 242.216,232.629 243.883,232.962 245.5,233.5C 246.463,234.363 246.463,235.03 245.5,235.5C 243.402,235.043 241.736,234.043 240.5,232.5 Z"/></g>
<g><path style="opacity:1" fill="#4161b4" d="M 206.5,248.5 C 209.833,248.5 213.167,248.5 216.5,248.5C 216.67,249.822 216.337,250.989 215.5,252C 212.183,252.498 208.85,252.665 205.5,252.5C 205.433,251.041 205.766,249.708 206.5,248.5 Z"/></g>
<g><path style="opacity:1" fill="#4765af" d="M 219.5,248.5 C 222.518,248.335 225.518,248.502 228.5,249C 229.833,250 229.833,251 228.5,252C 225.183,252.498 221.85,252.665 218.5,252.5C 218.433,251.041 218.766,249.708 219.5,248.5 Z"/></g>
<g><path style="opacity:1" fill="#3956ae" d="M 243.5,248.5 C 246.518,248.335 249.518,248.502 252.5,249C 253.833,250 253.833,251 252.5,252C 249.183,252.498 245.85,252.665 242.5,252.5C 242.433,251.041 242.766,249.708 243.5,248.5 Z"/></g>
<g><path style="opacity:1" fill="#253ea1" d="M 267.5,248.5 C 270.85,248.335 274.183,248.502 277.5,249C 278.337,250.011 278.67,251.178 278.5,252.5C 274.833,252.5 271.167,252.5 267.5,252.5C 267.5,251.167 267.5,249.833 267.5,248.5 Z"/></g>
<g><path style="opacity:1" fill="#2b3f9f" d="M 280.5,248.5 C 284.226,248.177 287.893,248.511 291.5,249.5C 291.709,250.086 292.043,250.586 292.5,251C 289.028,252.58 285.362,252.913 281.5,252C 280.663,250.989 280.33,249.822 280.5,248.5 Z"/></g>
<g><path style="opacity:1" fill="#4367b3" d="M 231.5,248.5 C 234.518,248.335 237.518,248.502 240.5,249C 241.833,250 241.833,251 240.5,252C 237.183,252.498 233.85,252.665 230.5,252.5C 230.433,251.041 230.766,249.708 231.5,248.5 Z"/></g>
<g><path style="opacity:1" fill="#3d56ac" d="M 255.5,248.5 C 258.518,248.335 261.518,248.502 264.5,249C 265.337,250.011 265.67,251.178 265.5,252.5C 262.15,252.665 258.817,252.498 255.5,252C 254.316,250.855 254.316,249.688 255.5,248.5 Z"/></g>
<g><path style="opacity:1" fill="#486db7" d="M 203.5,255.5 C 206.187,255.336 208.854,255.503 211.5,256C 212.833,257 212.833,258 211.5,259C 208.518,259.498 205.518,259.665 202.5,259.5C 202.433,258.041 202.766,256.708 203.5,255.5 Z"/></g>
<g><path style="opacity:1" fill="#3a62b6" d="M 215.5,255.5 C 218.833,255.5 222.167,255.5 225.5,255.5C 225.67,256.822 225.337,257.989 224.5,259C 221.183,259.498 217.85,259.665 214.5,259.5C 214.433,258.041 214.766,256.708 215.5,255.5 Z"/></g>
<g><path style="opacity:1" fill="#385db6" d="M 228.5,255.5 C 231.833,255.5 235.167,255.5 238.5,255.5C 238.5,256.833 238.5,258.167 238.5,259.5C 234.833,259.5 231.167,259.5 227.5,259.5C 227.433,258.041 227.766,256.708 228.5,255.5 Z"/></g>
<g><path style="opacity:1" fill="#2f54b1" d="M 241.5,255.5 C 244.85,255.335 248.183,255.502 251.5,256C 252.337,257.011 252.67,258.178 252.5,259.5C 248.833,259.5 245.167,259.5 241.5,259.5C 241.5,258.167 241.5,256.833 241.5,255.5 Z"/></g>
<g><path style="opacity:1" fill="#22369b" d="M 282.5,255.5 C 286.182,255.335 289.848,255.501 293.5,256C 294.357,256.689 295.023,257.522 295.5,258.5C 291.217,259.492 286.884,259.826 282.5,259.5C 282.5,258.167 282.5,256.833 282.5,255.5 Z"/></g>
<g><path style="opacity:1" fill="#386cd7" d="M 188.5,264.5 C 182.833,271.167 177.167,277.833 171.5,284.5C 169.896,285.287 169.229,286.62 169.5,288.5C 168.668,290.725 169.668,292.058 172.5,292.5C 181.986,293.494 191.652,293.827 201.5,293.5C 202.263,294.268 203.263,294.768 204.5,295C 202.567,295.251 200.734,295.751 199,296.5C 194.21,294.131 190.21,294.798 187,298.5C 183.883,297.6 181.383,298.6 179.5,301.5C 177.667,301.833 175.833,302.167 174,302.5C 170.686,301.897 167.52,301.897 164.5,302.5C 161.624,301.319 158.624,300.319 155.5,299.5C 154.558,299.608 153.725,299.941 153,300.5C 152.692,299.692 152.192,299.025 151.5,298.5C 148.893,300.233 146.56,302.233 144.5,304.5C 143.167,305.5 143.167,306.5 144.5,307.5C 144.043,308.298 143.376,308.631 142.5,308.5C 142.5,289.833 142.5,271.167 142.5,252.5C 144.747,252.085 146.914,251.418 149,250.5C 152.196,251.892 155.196,252.892 158,253.5C 162.098,252.137 165.764,250.137 169,247.5C 169.667,248.833 170.333,248.833 171,247.5C 171.483,248.448 171.649,249.448 171.5,250.5C 175.553,250.43 179.053,249.096 182,246.5C 184.166,248.121 186.666,248.955 189.5,249C 189.167,249.333 188.833,249.667 188.5,250C 189.874,253.41 190.541,253.243 190.5,249.5C 192.946,248.612 195.279,248.445 197.5,249C 194.513,250.481 193.346,252.648 194,255.5C 189.681,256.938 187.847,259.938 188.5,264.5 Z"/></g>
<g><path style="opacity:1" fill="#354eaa" d="M 254.5,255.5 C 258.182,255.335 261.848,255.501 265.5,256C 266.833,257 266.833,258 265.5,259C 261.848,259.499 258.182,259.665 254.5,259.5C 254.5,258.167 254.5,256.833 254.5,255.5 Z"/></g>
<g><path style="opacity:1" fill="#283ca1" d="M 268.5,255.5 C 271.85,255.335 275.183,255.502 278.5,256C 279.337,257.011 279.67,258.178 279.5,259.5C 275.818,259.665 272.152,259.499 268.5,259C 267.316,257.855 267.316,256.688 268.5,255.5 Z"/></g>
<g><path style="opacity:1" fill="#4966b8" d="M 211.5,262.5 C 214.85,262.335 218.183,262.502 221.5,263C 222.727,264.587 222.394,265.921 220.5,267C 216.848,267.499 213.182,267.665 209.5,267.5C 209.365,265.446 210.032,263.779 211.5,262.5 Z"/></g>
<g><path style="opacity:1" fill="#3d5bb1" d="M 225.5,262.5 C 229.167,262.5 232.833,262.5 236.5,262.5C 236.714,264.144 236.38,265.644 235.5,267C 231.848,267.499 228.182,267.665 224.5,267.5C 224.366,265.708 224.699,264.042 225.5,262.5 Z"/></g>
<g><path style="opacity:1" fill="#2b3fa1" d="M 270.5,262.5 C 274.182,262.335 277.848,262.501 281.5,263C 282.833,264.333 282.833,265.667 281.5,267C 277.833,267.667 274.167,267.667 270.5,267C 269.272,265.51 269.272,264.01 270.5,262.5 Z"/></g>
<g><path style="opacity:1" fill="#3e58ad" d="M 240.5,262.5 C 244.182,262.335 247.848,262.501 251.5,263C 252.833,264.333 252.833,265.667 251.5,267C 247.514,267.499 243.514,267.666 239.5,267.5C 239.366,265.708 239.699,264.042 240.5,262.5 Z"/></g>
<g><path style="opacity:1" fill="#324ca6" d="M 255.5,262.5 C 259.182,262.335 262.848,262.501 266.5,263C 267.833,264.333 267.833,265.667 266.5,267C 262.833,267.667 259.167,267.667 255.5,267C 254.272,265.51 254.272,264.01 255.5,262.5 Z"/></g>
<g><path style="opacity:1" fill="#2c3f9c" d="M 285.5,262.5 C 290.179,262.334 294.845,262.501 299.5,263C 301.394,264.079 301.727,265.413 300.5,267C 295.833,267.667 291.167,267.667 286.5,267C 284.452,265.774 284.119,264.274 285.5,262.5 Z"/></g>
<g><path style="opacity:1" fill="#4e74bc" d="M 198.5,262.5 C 201.187,262.336 203.854,262.503 206.5,263C 207.727,264.587 207.394,265.921 205.5,267C 202.518,267.498 199.518,267.665 196.5,267.5C 196.365,265.446 197.032,263.779 198.5,262.5 Z"/></g>
<g><path style="opacity:1" fill="#e5e9f2" d="M 171.5,284.5 C 171.369,285.239 171.536,285.906 172,286.5C 223.207,285.178 274.04,285.178 324.5,286.5C 325.338,286.842 325.672,287.508 325.5,288.5C 300.167,288.5 274.833,288.5 249.5,288.5C 222.833,288.5 196.167,288.5 169.5,288.5C 169.229,286.62 169.896,285.287 171.5,284.5 Z"/></g>
<g><path style="opacity:1" fill="#101960" d="M 249.5,288.5 C 274.833,288.5 300.167,288.5 325.5,288.5C 326.791,289.542 326.791,290.708 325.5,292C 289.502,292.5 253.502,292.667 217.5,292.5C 226.991,291.67 236.658,291.17 246.5,291C 248.119,290.764 249.119,289.931 249.5,288.5 Z"/></g>
<g><path style="opacity:1" fill="#182b85" d="M 169.5,288.5 C 196.167,288.5 222.833,288.5 249.5,288.5C 249.119,289.931 248.119,290.764 246.5,291C 236.658,291.17 226.991,291.67 217.5,292.5C 202.5,292.5 187.5,292.5 172.5,292.5C 169.668,292.058 168.668,290.725 169.5,288.5 Z"/></g>
<g><path style="opacity:1" fill="#3066d2" d="M 201.5,293.5 C 231.169,293.333 260.835,293.5 290.5,294C 286.735,295.377 287.068,296.377 291.5,297C 287.579,297.203 283.745,297.703 280,298.5C 278.334,297.66 278.167,298.16 279.5,300C 278.451,300.492 277.451,300.326 276.5,299.5C 272.205,301.961 268.038,304.627 264,307.5C 262.396,306.351 260.73,306.351 259,307.5C 258.055,307.095 257.388,306.428 257,305.5C 254.072,307.408 250.906,308.908 247.5,310C 247.833,310.333 248.167,310.667 248.5,311C 245.812,311.392 243.145,311.892 240.5,312.5C 237.329,314.841 234.329,317.341 231.5,320C 235.676,320.427 239.842,320.927 244,321.5C 246.145,321.604 247.979,320.937 249.5,319.5C 252.703,322.069 256.37,323.569 260.5,324C 261.252,324.671 261.586,325.504 261.5,326.5C 257.895,324.647 255.562,325.647 254.5,329.5C 253.837,331.042 253.17,332.709 252.5,334.5C 251.831,332.369 251.165,330.369 250.5,328.5C 248.892,325.513 246.558,324.846 243.5,326.5C 242.167,327.167 242.167,327.833 243.5,328.5C 245.071,327.691 246.738,327.357 248.5,327.5C 248.5,328.5 248.5,329.5 248.5,330.5C 244.998,330.076 242.665,331.41 241.5,334.5C 240.348,333.375 239.348,333.375 238.5,334.5C 232.997,336.494 231.164,334.494 233,328.5C 235.267,327.065 237.267,327.398 239,329.5C 237.422,324.624 234.755,324.291 231,328.5C 230.503,330.81 230.337,333.143 230.5,335.5C 230.5,336.833 229.833,337.5 228.5,337.5C 223.507,317.632 219.507,317.632 216.5,337.5C 217.415,336.672 218.081,335.672 218.5,334.5C 219.667,334.167 220.833,333.833 222,333.5C 223.681,333.608 224.848,334.275 225.5,335.5C 224.144,337.27 222.311,338.603 220,339.5C 219.586,339.043 219.086,338.709 218.5,338.5C 214.769,339.09 211.102,339.924 207.5,341C 207.833,341.333 208.167,341.667 208.5,342C 204.586,342.959 200.919,344.459 197.5,346.5C 193.473,349.803 194.14,351.803 199.5,352.5C 199.5,353.5 199.5,354.5 199.5,355.5C 180.5,355.5 161.5,355.5 142.5,355.5C 142.5,339.833 142.5,324.167 142.5,308.5C 143.376,308.631 144.043,308.298 144.5,307.5C 143.167,306.5 143.167,305.5 144.5,304.5C 146.56,302.233 148.893,300.233 151.5,298.5C 152.192,299.025 152.692,299.692 153,300.5C 153.725,299.941 154.558,299.608 155.5,299.5C 158.624,300.319 161.624,301.319 164.5,302.5C 167.52,301.897 170.686,301.897 174,302.5C 175.833,302.167 177.667,301.833 179.5,301.5C 181.383,298.6 183.883,297.6 187,298.5C 190.21,294.798 194.21,294.131 199,296.5C 200.734,295.751 202.567,295.251 204.5,295C 203.263,294.768 202.263,294.268 201.5,293.5 Z"/></g>
<g><path style="opacity:1" fill="#2a61cf" d="M 355.5,238.5 C 355.5,267.833 355.5,297.167 355.5,326.5C 353.273,325.599 352.273,323.933 352.5,321.5C 348.333,319.933 343.999,318.599 339.5,317.5C 335.48,318.18 331.646,318.18 328,317.5C 326.687,318.573 325.187,319.24 323.5,319.5C 319.249,317.917 315.416,318.584 312,321.5C 307.936,320.486 303.936,321.486 300,324.5C 299.667,323.833 299.333,323.167 299,322.5C 294.795,322.765 290.295,322.765 285.5,322.5C 281.084,322.775 277.084,323.775 273.5,325.5C 268.396,326.291 266.396,329.291 267.5,334.5C 266.5,334.5 265.5,334.5 264.5,334.5C 264.826,330.116 264.492,325.783 263.5,321.5C 262.83,323.291 262.163,324.958 261.5,326.5C 261.586,325.504 261.252,324.671 260.5,324C 256.37,323.569 252.703,322.069 249.5,319.5C 247.979,320.937 246.145,321.604 244,321.5C 239.842,320.927 235.676,320.427 231.5,320C 234.329,317.341 237.329,314.841 240.5,312.5C 243.145,311.892 245.812,311.392 248.5,311C 248.167,310.667 247.833,310.333 247.5,310C 250.906,308.908 254.072,307.408 257,305.5C 257.388,306.428 258.055,307.095 259,307.5C 260.73,306.351 262.396,306.351 264,307.5C 268.038,304.627 272.205,301.961 276.5,299.5C 277.451,300.326 278.451,300.492 279.5,300C 278.167,298.16 278.334,297.66 280,298.5C 283.745,297.703 287.579,297.203 291.5,297C 287.068,296.377 286.735,295.377 290.5,294C 260.835,293.5 231.169,293.333 201.5,293.5C 191.652,293.827 181.986,293.494 172.5,292.5C 187.5,292.5 202.5,292.5 217.5,292.5C 253.502,292.667 289.502,292.5 325.5,292C 326.791,290.708 326.791,289.542 325.5,288.5C 325.672,287.508 325.338,286.842 324.5,286.5C 318.167,278.5 311.833,270.5 305.5,262.5C 308.367,264.184 311.367,265.684 314.5,267C 317.014,269.283 319.18,271.783 321,274.5C 320.572,272.254 320.072,269.921 319.5,267.5C 320.554,265.307 320.22,263.807 318.5,263C 320.333,260.893 321.499,258.393 322,255.5C 324.414,253.709 326.914,252.043 329.5,250.5C 330.863,249.802 332.029,249.802 333,250.5C 335.734,248.364 338.901,246.03 342.5,243.5C 343.167,241.5 343.833,239.5 344.5,237.5C 346.12,240.058 347.62,240.058 349,237.5C 350.825,239.824 352.991,240.157 355.5,238.5 Z"/></g>
<g><path style="opacity:1" fill="#769ae2" d="M 355.5,142.5 C 356.499,213.665 356.833,284.998 356.5,356.5C 284.998,356.833 213.665,356.499 142.5,355.5C 161.5,355.5 180.5,355.5 199.5,355.5C 251.5,355.5 303.5,355.5 355.5,355.5C 355.5,345.833 355.5,336.167 355.5,326.5C 355.5,297.167 355.5,267.833 355.5,238.5C 355.5,227.167 355.5,215.833 355.5,204.5C 355.5,192.167 355.5,179.833 355.5,167.5C 355.5,160.833 355.5,154.167 355.5,147.5C 355.5,145.833 355.5,144.167 355.5,142.5 Z"/></g>
<g><path style="opacity:1" fill="#cedaf4" d="M 205.5,322.5 C 206.809,324.571 207.475,327.071 207.5,330C 207.167,332.5 206.833,335 206.5,337.5C 205.506,332.544 205.173,327.544 205.5,322.5 Z"/></g>
<g><path style="opacity:1" fill="#e2e9f8" d="M 238.5,334.5 C 239.525,334.897 239.692,335.563 239,336.5C 235.929,337.959 233.096,337.626 230.5,335.5C 230.337,333.143 230.503,330.81 231,328.5C 234.755,324.291 237.422,324.624 239,329.5C 237.267,327.398 235.267,327.065 233,328.5C 231.164,334.494 232.997,336.494 238.5,334.5 Z"/></g>
<g><path style="opacity:1" fill="#e2e9f8" d="M 250.5,328.5 C 250.012,331.711 250.679,334.544 252.5,337C 250.164,336.228 247.831,336.394 245.5,337.5C 243.412,337.38 242.078,336.38 241.5,334.5C 242.665,331.41 244.998,330.076 248.5,330.5C 248.5,329.5 248.5,328.5 248.5,327.5C 246.738,327.357 245.071,327.691 243.5,328.5C 242.167,327.833 242.167,327.167 243.5,326.5C 246.558,324.846 248.892,325.513 250.5,328.5 Z"/></g>
<g><path style="opacity:1" fill="#e0e7f8" d="M 264.5,334.5 C 264.719,335.675 264.386,336.675 263.5,337.5C 261.328,337.324 258.995,337.157 256.5,337C 254.722,334.865 254.055,332.365 254.5,329.5C 255.562,325.647 257.895,324.647 261.5,326.5C 262.163,324.958 262.83,323.291 263.5,321.5C 264.492,325.783 264.826,330.116 264.5,334.5 Z"/></g>
<g><path style="opacity:1" fill="#3769d3" d="M 257.5,327.5 C 260.93,326.755 262.597,328.089 262.5,331.5C 262.43,332.772 262.097,333.938 261.5,335C 259.866,335.494 258.199,335.66 256.5,335.5C 256.279,332.721 256.612,330.054 257.5,327.5 Z"/></g>
<g><path style="opacity:1" fill="#e1e8f8" d="M 194.5,322.5 C 197.05,322.561 198.55,323.894 199,326.5C 200.068,329.871 201.235,333.204 202.5,336.5C 202.167,336.833 201.833,337.167 201.5,337.5C 197.833,332.167 194.167,332.167 190.5,337.5C 190.167,337 189.833,336.5 189.5,336C 191.273,331.51 192.94,327.01 194.5,322.5 Z"/></g>
<g><path style="opacity:1" fill="#406ed5" d="M 195.5,324.5 C 196.578,326.539 197.578,328.706 198.5,331C 196.741,331.798 195.074,331.631 193.5,330.5C 194.372,328.55 195.039,326.55 195.5,324.5 Z"/></g>
<g><path style="opacity:1" fill="#e2e9f8" d="M 228.5,337.5 C 227.222,337.218 226.222,336.551 225.5,335.5C 224.848,334.275 223.681,333.608 222,333.5C 220.833,333.833 219.667,334.167 218.5,334.5C 218.081,335.672 217.415,336.672 216.5,337.5C 219.507,317.632 223.507,317.632 228.5,337.5 Z"/></g>
<g><path style="opacity:1" fill="#4471d5" d="M 221.5,324.5 C 222.481,326.396 223.481,328.396 224.5,330.5C 222.833,331.833 221.167,331.833 219.5,330.5C 220.372,328.55 221.039,326.55 221.5,324.5 Z"/></g>
<g><path style="opacity:1" fill="#dbe3f7" d="M 273.5,325.5 C 276.987,326.483 278.32,328.817 277.5,332.5C 274.753,332.187 272.086,332.52 269.5,333.5C 271.45,335.753 273.784,336.086 276.5,334.5C 277.604,335.631 277.271,336.465 275.5,337C 272.029,338.163 269.362,337.33 267.5,334.5C 266.396,329.291 268.396,326.291 273.5,325.5 Z"/></g>
<g><path style="opacity:1" fill="#3b6bd3" d="M 270.5,327.5 C 272.665,327.116 274.332,327.783 275.5,329.5C 273.5,330.833 271.5,330.833 269.5,329.5C 269.863,328.817 270.196,328.15 270.5,327.5 Z"/></g>
<g><path style="opacity:1" fill="#3468d0" d="M 355.5,326.5 C 355.5,336.167 355.5,345.833 355.5,355.5C 303.5,355.5 251.5,355.5 199.5,355.5C 199.5,354.5 199.5,353.5 199.5,352.5C 194.14,351.803 193.473,349.803 197.5,346.5C 200.919,344.459 204.586,342.959 208.5,342C 208.167,341.667 207.833,341.333 207.5,341C 211.102,339.924 214.769,339.09 218.5,338.5C 219.086,338.709 219.586,339.043 220,339.5C 222.311,338.603 224.144,337.27 225.5,335.5C 226.222,336.551 227.222,337.218 228.5,337.5C 229.833,337.5 230.5,336.833 230.5,335.5C 233.096,337.626 235.929,337.959 239,336.5C 239.692,335.563 239.525,334.897 238.5,334.5C 239.348,333.375 240.348,333.375 241.5,334.5C 242.078,336.38 243.412,337.38 245.5,337.5C 247.831,336.394 250.164,336.228 252.5,337C 250.679,334.544 250.012,331.711 250.5,328.5C 251.165,330.369 251.831,332.369 252.5,334.5C 253.17,332.709 253.837,331.042 254.5,329.5C 254.055,332.365 254.722,334.865 256.5,337C 258.995,337.157 261.328,337.324 263.5,337.5C 264.386,336.675 264.719,335.675 264.5,334.5C 265.5,334.5 266.5,334.5 267.5,334.5C 269.362,337.33 272.029,338.163 275.5,337C 277.271,336.465 277.604,335.631 276.5,334.5C 273.784,336.086 271.45,335.753 269.5,333.5C 272.086,332.52 274.753,332.187 277.5,332.5C 278.32,328.817 276.987,326.483 273.5,325.5C 277.084,323.775 281.084,322.775 285.5,322.5C 290.295,322.765 294.795,322.765 299,322.5C 299.333,323.167 299.667,323.833 300,324.5C 303.936,321.486 307.936,320.486 312,321.5C 315.416,318.584 319.249,317.917 323.5,319.5C 325.187,319.24 326.687,318.573 328,317.5C 331.646,318.18 335.48,318.18 339.5,317.5C 343.999,318.599 348.333,319.933 352.5,321.5C 352.273,323.933 353.273,325.599 355.5,326.5 Z"/></g>
<g><path style="opacity:1" fill="#dde5f7" d="M 280.5,325.5 C 282.152,326.807 283.818,326.807 285.5,325.5C 287.029,325.529 288.196,326.196 289,327.5C 294.354,324.32 296.854,325.987 296.5,332.5C 296.167,334.167 295.833,335.833 295.5,337.5C 294.679,334.553 294.179,331.553 294,328.5C 292.667,327.167 291.333,327.167 290,328.5C 289,340.5 288,340.5 287,328.5C 285.951,327.483 284.784,327.316 283.5,328C 282.87,331.129 282.204,334.296 281.5,337.5C 280.509,333.555 280.176,329.555 280.5,325.5 Z"/></g>
<g><path style="opacity:1" fill="#4a76d7" d="M 247.5,331.5 C 248.598,332.601 248.765,333.934 248,335.5C 245.323,337.066 243.99,336.4 244,333.5C 245.302,332.915 246.469,332.249 247.5,331.5 Z"/></g>
<g><path style="opacity:1" fill="#e1e8f8" d="M 307.5,325.5 C 308.497,325.47 309.164,325.97 309.5,327C 308,330.833 306.5,334.667 305,338.5C 303.92,342.112 301.753,343.112 298.5,341.5C 299.729,340.719 301.062,340.219 302.5,340C 303.022,339.439 303.355,338.772 303.5,338C 302.167,334.667 300.833,331.333 299.5,328C 299.974,326.392 300.641,326.226 301.5,327.5C 302.123,329.711 303.123,331.711 304.5,333.5C 306.071,331.029 307.071,328.363 307.5,325.5 Z"/></g>
</svg>
