<?xml version="1.0" encoding="UTF-8"?>
<!DOCTYPE svg PUBLIC "-//W3C//DTD SVG 1.1//EN" "http://www.w3.org/Graphics/SVG/1.1/DTD/svg11.dtd">
<svg xmlns="http://www.w3.org/2000/svg" version="1.1" width="236px" height="214px" style="shape-rendering:geometricPrecision; text-rendering:geometricPrecision; image-rendering:optimizeQuality; fill-rule:evenodd; clip-rule:evenodd" xmlns:xlink="http://www.w3.org/1999/xlink">
<g><path style="opacity:1" fill="#fdfdfd" d="M 69.5,-0.5 C 83.1667,-0.5 96.8333,-0.5 110.5,-0.5C 110.168,33.6708 110.502,67.6708 111.5,101.5C 135.567,100.603 151.567,88.7696 159.5,66C 160.461,62.1974 161.294,58.364 162,54.5C 164.921,77.0873 177.088,92.254 198.5,100C 203.085,101.225 207.752,101.725 212.5,101.5C 213.498,67.6708 213.832,33.6708 213.5,-0.5C 220.833,-0.5 228.167,-0.5 235.5,-0.5C 235.5,70.8333 235.5,142.167 235.5,213.5C 203.5,213.5 171.5,213.5 139.5,213.5C 139.672,212.508 139.338,211.842 138.5,211.5C 129.5,202.833 120.5,194.167 111.5,185.5C 110.501,194.082 110.168,203.415 110.5,213.5C 107.833,213.5 105.167,213.5 102.5,213.5C 102.826,204.651 102.493,195.984 101.5,187.5C 81.7115,183.935 73.8782,172.268 78,152.5C 82.8704,142.131 91.0371,136.798 102.5,136.5C 102.5,127.833 102.5,119.167 102.5,110.5C 68.1667,110.5 33.8333,110.5 -0.5,110.5C -0.5,107.833 -0.5,105.167 -0.5,102.5C 6.16667,102.5 12.8333,102.5 19.5,102.5C 19.5,91.8333 19.5,81.1667 19.5,70.5C 37.008,70.83 54.3414,70.4967 71.5,69.5C 94.5137,63.8334 104.347,49.1667 101,25.5C 95.7007,10.3543 85.2007,1.68768 69.5,-0.5 Z"/></g>
<g><path style="opacity:1" fill="#fffcfb" d="M 116.5,0.5 C 116.5,0.166667 116.5,-0.166667 116.5,-0.5C 146.167,-0.5 175.833,-0.5 205.5,-0.5C 205.5,-0.166667 205.5,0.166667 205.5,0.5C 180.719,5.4491 166.219,20.4491 162,45.5C 157.561,19.5601 142.394,4.56009 116.5,0.5 Z"/></g>
<g><path style="opacity:1" fill="#010101" d="M -0.5,-0.5 C 22.8333,-0.5 46.1667,-0.5 69.5,-0.5C 85.2007,1.68768 95.7007,10.3543 101,25.5C 104.347,49.1667 94.5137,63.8334 71.5,69.5C 53.8333,69.5 36.1667,69.5 18.5,69.5C 18.5,80.1667 18.5,90.8333 18.5,101.5C 12.1667,101.5 5.83333,101.5 -0.5,101.5C -0.5,67.5 -0.5,33.5 -0.5,-0.5 Z"/></g>
<g><path style="opacity:1" fill="#ff8c5f" d="M 110.5,-0.5 C 112.5,-0.5 114.5,-0.5 116.5,-0.5C 116.5,-0.166667 116.5,0.166667 116.5,0.5C 114.833,0.5 113.167,0.5 111.5,0.5C 111.5,34.1667 111.5,67.8333 111.5,101.5C 110.502,67.6708 110.168,33.6708 110.5,-0.5 Z"/></g>
<g><path style="opacity:1" fill="#ff610f" d="M 116.5,0.5 C 142.394,4.56009 157.561,19.5601 162,45.5C 166.219,20.4491 180.719,5.4491 205.5,0.5C 207.833,0.5 210.167,0.5 212.5,0.5C 212.5,34.1667 212.5,67.8333 212.5,101.5C 207.752,101.725 203.085,101.225 198.5,100C 177.088,92.254 164.921,77.0873 162,54.5C 161.294,58.364 160.461,62.1974 159.5,66C 151.567,88.7696 135.567,100.603 111.5,101.5C 111.5,67.8333 111.5,34.1667 111.5,0.5C 113.167,0.5 114.833,0.5 116.5,0.5 Z"/></g>
<g><path style="opacity:1" fill="#ff743b" d="M 205.5,0.5 C 205.5,0.166667 205.5,-0.166667 205.5,-0.5C 208.167,-0.5 210.833,-0.5 213.5,-0.5C 213.832,33.6708 213.498,67.6708 212.5,101.5C 212.5,67.8333 212.5,34.1667 212.5,0.5C 210.167,0.5 207.833,0.5 205.5,0.5 Z"/></g>
<g><path style="opacity:1" fill="#a7a7a7" d="M 69.5,19.5 C 52.8333,19.5 36.1667,19.5 19.5,19.5C 19.5,29.8333 19.5,40.1667 19.5,50.5C 35.8333,50.5 52.1667,50.5 68.5,50.5C 52.0084,51.4965 35.3417,51.8298 18.5,51.5C 18.5,40.5 18.5,29.5 18.5,18.5C 35.6749,18.1701 52.6749,18.5034 69.5,19.5 Z"/></g>
<g><path style="opacity:1" fill="#fefefe" d="M 69.5,19.5 C 77.706,21.045 82.0394,26.045 82.5,34.5C 81.7287,43.2697 77.062,48.6031 68.5,50.5C 52.1667,50.5 35.8333,50.5 19.5,50.5C 19.5,40.1667 19.5,29.8333 19.5,19.5C 36.1667,19.5 52.8333,19.5 69.5,19.5 Z"/></g>
<g><path style="opacity:1" fill="#b9b9b9" d="M 71.5,69.5 C 54.3414,70.4967 37.008,70.83 19.5,70.5C 19.5,81.1667 19.5,91.8333 19.5,102.5C 12.8333,102.5 6.16667,102.5 -0.5,102.5C -0.5,102.167 -0.5,101.833 -0.5,101.5C 5.83333,101.5 12.1667,101.5 18.5,101.5C 18.5,90.8333 18.5,80.1667 18.5,69.5C 36.1667,69.5 53.8333,69.5 71.5,69.5 Z"/></g>
<g><path style="opacity:1" fill="#734eb6" d="M 155.5,111.5 C 145.985,111.173 136.652,111.506 127.5,112.5C 126.957,112.44 126.624,112.107 126.5,111.5C 136.325,110.177 145.992,110.177 155.5,111.5 Z"/></g>
<g><path style="opacity:1" fill="#09bfe0" d="M -0.5,110.5 C 33.8333,110.5 68.1667,110.5 102.5,110.5C 102.5,119.167 102.5,127.833 102.5,136.5C 91.0371,136.798 82.8704,142.131 78,152.5C 73.8782,172.268 81.7115,183.935 101.5,187.5C 101.5,195.833 101.5,204.167 101.5,212.5C 67.5,212.5 33.5,212.5 -0.5,212.5C -0.5,204.167 -0.5,195.833 -0.5,187.5C 14.9347,185.899 23.6014,177.399 25.5,162C 23.593,146.593 14.9263,138.093 -0.5,136.5C -0.5,127.833 -0.5,119.167 -0.5,110.5 Z"/></g>
<g><path style="opacity:1" fill="#6841b2" d="M 212.5,137.5 C 212.5,128.833 212.5,120.167 212.5,111.5C 203.651,111.174 194.984,111.507 186.5,112.5C 185.957,112.44 185.624,112.107 185.5,111.5C 194.81,110.502 204.143,110.168 213.5,110.5C 213.832,120.252 213.499,129.252 212.5,137.5 Z"/></g>
<g><path style="opacity:1" fill="#4e16a7" d="M 127.5,112.5 C 136.652,111.506 145.985,111.173 155.5,111.5C 174.799,130.298 193.965,149.298 213,168.5C 213.667,178.167 213.667,187.833 213,197.5C 184.632,168.965 156.132,140.632 127.5,112.5 Z"/></g>
<g><path style="opacity:1" fill="#4d14a7" d="M 186.5,112.5 C 194.984,111.507 203.651,111.174 212.5,111.5C 212.5,120.167 212.5,128.833 212.5,137.5C 203.833,129.167 195.167,120.833 186.5,112.5 Z"/></g>
<g><path style="opacity:1" fill="#4e16a7" d="M 110.5,125.5 C 139.632,154.132 168.632,182.965 197.5,212C 187.833,212.667 178.167,212.667 168.5,212C 149.333,192.833 130.167,173.667 111,154.5C 110.5,144.839 110.334,135.172 110.5,125.5 Z"/></g>
<g><path style="opacity:1" fill="#fdfefe" d="M -0.5,136.5 C 14.9263,138.093 23.593,146.593 25.5,162C 23.6014,177.399 14.9347,185.899 -0.5,187.5C -0.5,170.5 -0.5,153.5 -0.5,136.5 Z"/></g>
<g><path style="opacity:1" fill="#4d13a7" d="M 111.5,185.5 C 120.5,194.167 129.5,202.833 138.5,211.5C 129.682,212.493 120.682,212.827 111.5,212.5C 111.5,203.5 111.5,194.5 111.5,185.5 Z"/></g>
<g><path style="opacity:1" fill="#232323" d="M 230.5,211.5 C 230.383,209.516 231.05,207.85 232.5,206.5C 233.641,208.421 233.808,210.421 233,212.5C 232.667,211.5 232.333,210.5 232,209.5C 231.722,210.416 231.222,211.082 230.5,211.5 Z"/></g>
<g><path style="opacity:1" fill="#5b5b5b" d="M 230.5,211.5 C 229.434,212.692 228.601,212.359 228,210.5C 227.692,211.308 227.192,211.975 226.5,212.5C 225.052,205.922 223.885,205.922 223,212.5C 222.879,210.273 222.046,208.44 220.5,207C 222.833,206.333 225.167,206.333 227.5,207C 228.399,208.652 229.399,210.152 230.5,211.5 Z"/></g>
<g><path style="opacity:1" fill="#85d9ec" d="M 101.5,187.5 C 102.493,195.984 102.826,204.651 102.5,213.5C 68.1667,213.5 33.8333,213.5 -0.5,213.5C -0.5,213.167 -0.5,212.833 -0.5,212.5C 33.5,212.5 67.5,212.5 101.5,212.5C 101.5,204.167 101.5,195.833 101.5,187.5 Z"/></g>
<g><path style="opacity:1" fill="#a089cd" d="M 111.5,185.5 C 111.5,194.5 111.5,203.5 111.5,212.5C 120.682,212.827 129.682,212.493 138.5,211.5C 139.338,211.842 139.672,212.508 139.5,213.5C 129.833,213.5 120.167,213.5 110.5,213.5C 110.168,203.415 110.501,194.082 111.5,185.5 Z"/></g>
</svg>
